<?xml version="1.0" encoding="utf-8"?>
<!-- Generator: Adobe Illustrator 25.4.1, SVG Export Plug-In . SVG Version: 6.00 Build 0)  -->
<svg version="1.1" xmlns="http://www.w3.org/2000/svg" xmlns:xlink="http://www.w3.org/1999/xlink" x="0px" y="0px"
	 viewBox="0 0 900 500" style="enable-background:new 0 0 900 500;" xml:space="preserve">
<style type="text/css">
	.st0{display:none;}
	.st1{display:inline;fill:#FFFFFF;stroke:#000000;stroke-miterlimit:10;}
	.st2{fill:#FFFFFF;}
	.st3{fill:#A0C6F4;}
	.st4{fill:none;stroke:#2A1E17;stroke-linecap:round;stroke-linejoin:round;stroke-miterlimit:10;}
	.st5{fill:#2A1E17;}
	.st6{fill:#EAECEC;}
	.st7{fill:#F9865F;}
	.st8{fill:#2A1E33;}
	.st9{fill:#7595EC;}
	.st10{fill:#FF8A66;}
	.st11{fill:#FFF7C9;}
	.st12{fill:none;stroke:#2A1E33;stroke-linecap:round;stroke-linejoin:round;stroke-miterlimit:10;}
	.st13{display:none;fill:#2A1E17;}
	.st14{fill:#FF6D66;}
	.st15{fill:#FAD8B0;}
	.st16{fill:#C6CBCB;}
	.st17{fill:#FFF7DC;}
	.st18{fill:#FFE1C0;}
	.st19{fill:#FFFFFF;stroke:#2A1E17;stroke-linecap:round;stroke-linejoin:round;stroke-miterlimit:10;}
	.st20{fill:#91BA83;}
	.st21{display:inline;fill:#2A1E33;}
	.st22{font-family:'Poppins-Bold';}
	.st23{font-size:42.8928px;}
	.st24{letter-spacing:-1;}
	.st25{display:none;fill:#2A1E33;}
	.st26{font-size:10px;}
	.st27{display:none;fill:#FFFFFF;}
	.st28{fill:none;}
	.st29{font-family:'Poppins-Regular';}
	.st30{display:none;fill:none;stroke:#2A1E17;stroke-miterlimit:10;}
	.st31{fill:none;stroke:#2A1E17;stroke-width:0.6707;stroke-linecap:round;stroke-linejoin:round;stroke-miterlimit:10;}
	.st32{fill:#96BD89;}
	.st33{fill:none;stroke:#FF6D66;stroke-linecap:round;stroke-linejoin:round;stroke-miterlimit:10;}
	.st34{fill:none;stroke:#FAD8B0;stroke-miterlimit:10;}
	.st35{display:none;fill:none;stroke:#FAD8B0;stroke-miterlimit:10;}
	.st36{display:none;fill:none;stroke:#A0C6F4;stroke-linecap:round;stroke-linejoin:round;stroke-miterlimit:10;}
	.st37{display:none;fill:#E3E6E6;}
	.st38{display:inline;fill:#F6F6F6;}
	.st39{display:inline;opacity:0.31;}
	.st40{opacity:0.31;}
	.st41{clip-path:url(#SVGID_00000117640690757014998160000015601990918129558160_);fill:#959595;}
	.st42{clip-path:url(#SVGID_00000117640690757014998160000015601990918129558160_);fill:#A4A4A4;}
	.st43{clip-path:url(#SVGID_00000117640690757014998160000015601990918129558160_);fill:#242424;}
	.st44{display:none;fill:#FFF7DC;}
	.st45{display:inline;}
	.st46{display:inline;clip-path:url(#SVGID_00000030465796732782205030000004886844862273340332_);fill:#7595EC;}
	.st47{display:inline;clip-path:url(#SVGID_00000030465796732782205030000004886844862273340332_);fill:#F9865F;}
	.st48{display:inline;clip-path:url(#SVGID_00000030465796732782205030000004886844862273340332_);fill:#2A1E33;}
	.st49{display:none;fill:#F6F6F6;}
	.st50{display:none;opacity:0.31;}
	.st51{display:inline;clip-path:url(#SVGID_00000113339322211041883430000009157867597179968671_);fill:#959595;}
	.st52{display:inline;clip-path:url(#SVGID_00000113339322211041883430000009157867597179968671_);fill:#A4A4A4;}
	.st53{display:inline;clip-path:url(#SVGID_00000113339322211041883430000009157867597179968671_);fill:#242424;}
	.st54{display:none;fill:#91BA83;}
	.st55{display:none;fill:none;stroke:#2A1E17;stroke-linecap:round;stroke-linejoin:round;stroke-miterlimit:10;}
	.st56{font-size:6.2096px;}
	.st57{font-size:13.3143px;}
	.st58{font-family:'Poppins-Light';}
	.st59{display:inline;fill:#7595EC;}
	.st60{fill:none;stroke:#FFFFFF;stroke-linecap:round;stroke-linejoin:round;stroke-miterlimit:10;}
</style>
<g id="BACKGROUND" class="st0">
	<rect class="st1" width="900" height="500"/>
</g>
<g id="OBJECTS">
	<g>
		<g>
			<g>
				<path class="st2" d="M721.93,211.86c-32.4-30.37-70.36-38.21-80.39-39.81c6.76-18.23,17.2-45.33,19.8-49.34
					c0.84-0.11,2.55-0.29,5.07-0.29c7.37,0,23.14,1.53,45.97,11.8c32.95,14.83,41.78,31.51,43.51,35.59L721.93,211.86z"/>
				<path class="st3" d="M666.41,124.42c7.21,0,22.66,1.51,45.15,11.63c29.81,13.42,39.45,28.41,41.99,33.49l-31.83,39.4
					c-19.15-17.44-39.8-27.07-54.07-32.14c-10.13-3.6-18.41-5.44-23.38-6.33c7.47-20.07,15.59-40.72,18.32-45.89
					C663.47,124.5,664.75,124.42,666.41,124.42 M666.41,120.42c-4.01,0-6.07,0.42-6.07,0.42c-2.34,0.78-21.54,52.84-21.54,52.84
					s45.56,4.65,83.32,41.12l36.04-44.62c0,0-6.01-20.26-44.96-37.78C690.37,122.13,674.46,120.42,666.41,120.42L666.41,120.42z"/>
			</g>
			<path class="st4" d="M645.49,177.73c0,0,44.8,4.53,72.41,29.87"/>
			<polygon class="st3" points="684.18,175.54 700.89,143.04 718.07,176.94 			"/>
			<polygon class="st4" points="687.43,175.08 704.14,142.58 721.32,176.47 			"/>
		</g>
		<path class="st4" d="M671.74,118.44c0,0,50.23,4.53,81.46,41.63"/>
	</g>
	<path class="st5" d="M697.41,262.46c-2.76-2.03-4.57-3.39-4.57-3.39c0.76-1.02,12.85-13.9,19.85-24.28
		C712.69,234.8,698.53,263.29,697.41,262.46z"/>
	<path class="st4" d="M526.12,168.59c1.35,2.24,1.94,1.35,5.83,1.05s9.42,2.54,11.37,7.33s1.35,5.53,0.3,6.13
		c-1.05,0.6-8.53,1.5-8.83,2.99"/>
	<path class="st6" d="M557.52,422.01"/>
	<g>
		<polygon class="st7" points="626.89,412.05 623.41,406.16 611.04,426.77 614.29,429.27 		"/>
		<path class="st7" d="M544.8,360.95c0,0-6.41-10.42-3.66-15.52l20.44,2.19L544.8,360.95z"/>
		<path d="M544.8,360.95l1.22,2.81l-3.78,14.72c-0.48,1.85,0.14,3.82,1.59,5.07l0,0l18.69-27.63c1.78-2.62,1.37-6.15-0.95-8.31
			l-4.18-3.88L544.8,360.95z"/>
		<path class="st8" d="M534.8,186.09c5.85-0.14,13.27-0.51,11.79-4.96c-1.48-4.45-7.05-15.58-19.66-12.24c0,0-4.45,3.71,1.11,10.38
			C533.6,185.95,534.8,186.09,534.8,186.09z"/>
		<path class="st9" d="M564.42,347.87c0,0-9.99-29.5-1.54-42.45c6.98-10.69,29.77,6.7,32.9,9.04L612.09,285
			c0,0-3.77-5.28-13.01-10.45c-9.24-5.17-47.43-20.65-65.38,7.67c-6.63,10.47-6.73,55.37,5.99,72.58L564.42,347.87z"/>
		<path class="st4" d="M564.42,347.87c0,0-9.99-29.5-1.54-42.45c6.98-10.69,29.77,6.7,32.9,9.04"/>
		<path class="st9" d="M612.09,285c-7.42,7.81-29.41,45.85-34.36,64.03c-6.62,24.32-4.13,44.49,32.23,83.98l17.58-25.6
			c0,0-12.36-18.77-10.05-36.45c3.34-25.59,21.55-50.4,30.76-66.14L612.09,285z"/>
		<polygon class="st5" points="614.88,288.31 644.12,311.25 652.86,297.97 		"/>
		<path class="st10" d="M782.8,264.18c4.56,0.98,8.03,2.71,10.42,5.21s1.3,3.8,0.43,4.56c-0.87,0.76-4.23-0.11-7.16-2.71
			C783.56,268.63,782.8,264.18,782.8,264.18z"/>
		<path class="st7" d="M692.84,259.07c0.76-1.02,12.85-13.9,19.85-24.28c0,0,21.15,23.7,23.45,24.47c0.85,0.28,6.04,0.22,12.48,0.15
			c10.88-0.11,25.35-0.22,28.55,1.38c5.1,2.55,8.16,3.82,9.43,7.39c1.27,3.57,1.78,5.9-1.27,6.12c-3.57,0.25-5.86-4.33-5.86-4.33
			s-2.92,1.76-10.45,4.59c0,0-27.11,10.52-45.23,5.43C718.84,278.6,692.84,259.07,692.84,259.07z"/>
		<path class="st7" d="M528.51,164.4c-2.33,0.89-3.74,1.94-2.39,4.19c1.35,2.24,1.94,1.35,5.83,1.05s9.42,2.54,11.37,7.33
			s1.35,5.53,0.3,6.13c-1.05,0.6-8.53,1.5-8.83,2.99c-0.3,1.5,3.03,5.91,9.91,5.61l1.65-0.3c0,0,14.47,14.13,16.56,16.23
			c2.09,2.09,17.48,12.52,25.96,14.64c6.44,1.61,19.5-0.47,27.34-2c3.81-0.74,6.39-1.36,6.39-1.36s-5.89-10.6-7.08-26.91
			c0,0-14.08,2.26-23.44,4.32c0,0-21.84-12.18-32.46-17.56c0,0-9.27-11.37-13.61-12.86C541.68,164.4,531.65,163.21,528.51,164.4z"/>
		<path class="st5" d="M616.22,220.28c3.81-0.74,6.39-1.36,6.39-1.36s-7.12-8.98-8.32-25.28c0,0-3.22,3.47-2.22,12.7
			C613.34,217.95,616.22,220.28,616.22,220.28z"/>
		<path class="st11" d="M613.95,191.81c0,0,0.2,19.92,5.54,28.24l1.91-0.77c0,0-25.16,29.43-33.29,48.66
			c-1.33,3.15,52.23,37.36,60.14,36.88c0,0,26.1-39.83,35.02-51.63l9.59,7.43c0,0,18.81-19.05,19.82-25.82
			c0,0-18.17-22.11-33.04-28.59c-14.87-6.47-28.15-17.57-44.12-17.26C621.71,189.21,613.95,191.81,613.95,191.81z"/>
		<polygon class="st5" points="692.87,260.62 683.27,253.18 684.8,249.02 		"/>
		<path class="st7" d="M707.46,181.83c-1.68,5.22-6.53,20.33-11.94,22.2c-5.41,1.87-11.04-0.48-11.04-0.48l-5.76,2.95
			c-0.64,1.93-5.19,3.59-11.06,3.82c-4.35,0.17-7-5.42-5.71-9.46c0.59-1.86,2.8-11.01,2.8-11.01s4.66-17.16,8.95-20.71
			c4.29-3.54,8.32-7.05,19.77-2.43C711,173.81,707.46,181.83,707.46,181.83z"/>
		<path class="st8" d="M672.69,182.58c-0.77,3.21-4.11,9.62-6.29,8.47c-2.18-1.15-2.95-4.11-1.41-9.75s2.82-18.48,7.18-20.78
			c4.36-2.31,6.29,0.38,6.29,0.38s-1.92-9.37,3.72-10.65c0,0,1.92-0.9,1.15,5.52c0,0,2.18-5.9,9.24-5.13s9.49,10.65,9.49,10.65
			s0.51-2.69,3.72-2.69c3.21,0,8.08,4.75,6.93,10.01c0,0,8.21-2.57,12.57,3.98c4.36,6.54,3.85,13.73-6.67,16.55
			c-11,2.95-10.91-9.88-12.57-11.55c-1.67-1.67-3.46-3.59-9.62-1.28c-6.16,2.31-12.57-4.49-12.57-4.49s-1.03,8.21-2.05,8.98
			c-1.03,0.77-3.08,1.8-2.57-2.05c0.51-3.85,1.15-3.46,0.77-4.49s-2.12-4.26-5.77-1.41C670.13,176.03,672.69,182.58,672.69,182.58z"
			/>
		<path class="st12" d="M674.44,184.01c-2.45-2.06-4.14-5.68-1.99-9.3s5.68-4.11,6.75-2.74s1.49,3.68,0.48,6.42"/>
		<path d="M614.29,429.27l1.22,2.81l-3.78,14.72c-0.48,1.85,0.14,3.82,1.59,5.07l0,0l18.69-27.63c1.78-2.62,1.37-6.15-0.95-8.31
			l-4.18-3.88L614.29,429.27z"/>
		<path class="st12" d="M678.47,160.89c0,0-1.43-4.66-5.72-5.88"/>
		<line class="st4" x1="587.53" y1="266.53" x2="639.31" y2="194.2"/>
		<path class="st4" d="M660.65,199.26c-1.87,2.43-2.72,12.86,5.87,13.54s14.07-3.09,14.07-3.09"/>
		<path class="st4" d="M546.01,165.9c0,0,5.92,7.83,6.85,10.62"/>
		<path class="st4" d="M767.64,270.93c0,0,3.95,3.26,11.83-0.96c2.86-1.53,0.82-5.14-2.79-4.24c-3.62,0.9-7.91-0.45-7.91-0.45"/>
		<path class="st4" d="M784.16,264.63c0,0,3.79,4.43,3.69,7.06"/>
		<path class="st4" d="M728.32,264.15c0,0,3.43-4.57,7.82-4.88"/>
		<path class="st4" d="M583.67,203.71c0,0,2-6.24,8.42-7.39"/>
		<path class="st4" d="M601.06,298.39l-7.65,14.64c0,0-25.24,42.72-16.68,70.31"/>
		<path class="st4" d="M623.42,347.39l24.83-42.57c0,0,32.55-47.21,35.88-53.87l11.49-21.25"/>
		<path class="st4" d="M590.99,271.07c0,0,44.16,32.2,57.26,33.75"/>
		<path class="st4" d="M613.95,191.81c0,0-0.04,20.21,5.41,28.49"/>
		<path class="st4" d="M711.27,231.6c-1.39,8.33-19.82,25.82-19.82,25.82"/>
	</g>
	<path class="st13" d="M706.91,256.12"/>
	<path class="st7" d="M789.61,315.89"/>
	<circle class="st5" cx="573.71" cy="332.7" r="2.62"/>
	<g>
		<polygon class="st4" points="819.75,389.05 818.3,379.02 826.86,384.71 822.38,385.69 		"/>
		<path class="st4" d="M536.01,217.82c-16.21-14.3-43,21.37,55.03,134.9c56.55,65.5,100.98,71.37,107,48.58
			c10.8-40.88-28.2-51.21-13.69-35.2c21.1,23.28,81.12,28.2,125.84,6.47c44.13-21.44,17-54.73,14.26-56.67"/>
		<circle class="st5" cx="810.9" cy="372.37" r="2.62"/>
		<line class="st4" x1="772.74" y1="393.78" x2="850.48" y2="349.96"/>
		<circle class="st5" cx="537.63" cy="219.94" r="2.62"/>
	</g>
	<circle class="st14" cx="604.5" cy="165.8" r="5.63"/>
	<g>
		<path class="st3" d="M502.41,122.88c-1.37,0-2.47,1.11-2.47,2.47s1.11,2.47,2.47,2.47s2.47-1.11,2.47-2.47
			S503.77,122.88,502.41,122.88L502.41,122.88z"/>
	</g>
	<circle class="st15" cx="833.8" cy="427.59" r="2.47"/>
	<g>
		<path class="st8" d="M789.61,315.89l-26.59-12.48c-2.15-1.01-2.11-4.07,0.06-5.03l49.46-21.76c0.7-0.31,1.5-0.31,2.2-0.01
			l33.98,14.58L789.61,315.89z"/>
		<path class="st16" d="M787.97,274.89c0.07,11,1.65,41.01,1.65,41.01l59.11-24.69l-1.33-41.75c-0.08-2.56-2.74-4.22-5.08-3.15
			l-50.9,23.19C789.31,270.45,787.95,272.56,787.97,274.89z"/>
		<path class="st4" d="M789.61,315.89l59.11-24.69l-1.33-41.75c0,0-0.39-4.56-5.08-3.15"/>
		<line class="st4" x1="818.22" y1="285.88" x2="822.22" y2="276.45"/>
		<line class="st4" x1="822.22" y1="285.88" x2="826.21" y2="276.45"/>
	</g>
	<circle class="st14" cx="513.07" cy="386.31" r="2.47"/>
	<circle class="st14" cx="721.6" cy="398.57" r="3.44"/>
	<g>
		<path class="st17" d="M538.7,422.98c4.02,1.93,15.73,6.8,31.23,6.7c0.85-0.01,1.5,0.74,1.4,1.59l-2.16,17.13
			c-0.08,0.61-0.54,1.1-1.14,1.21c-4.38,0.82-22.02,3.24-35.22-7.95c-0.41-0.35-0.58-0.91-0.44-1.43l4.36-16.33
			C536.96,423.04,537.9,422.6,538.7,422.98z"/>
		<path class="st4" d="M540.25,428.02c0,0,7.62,10.71,10.34,12.25c2.72,1.53,17.4-7.21,17.4-7.21"/>
		<line class="st4" x1="557.78" y1="438.77" x2="565.79" y2="447"/>
		<line class="st4" x1="546.65" y1="437.18" x2="537.29" y2="439.73"/>
	</g>
	<rect x="775" y="220.39" class="st18" width="8.95" height="8.95"/>
	<g>
		<polygon class="st3" points="776.21,341.09 778.87,345.69 781.53,350.3 776.21,350.3 770.89,350.3 773.55,345.69 		"/>
	</g>
	<g>
		<path class="st4" d="M561.15,137.01l0.69-20.91c-0.07-1.95,0.72-2.57,1.92-2.84c5.68-1.26,22.95-5.11,41.73,0.45
			c2.43,0.72,2.35,2,2.31,3.16l-0.67,19.94c-0.05,1.46-1.58,2.52-3.29,2.27c-5.48-0.8-12.94-1.05-20.52-0.99
			c-7.83,0.07-14.8,0.65-19.68,1.59C561.8,140.03,561.1,138.64,561.15,137.01z"/>
		<path class="st4" d="M567.47,133.95l10.93-12.8l12.1,11.94C586.33,131.74,567.47,133.95,567.47,133.95z"/>
		<polyline class="st4" points="585.11,127.08 593.94,120 601.39,125.32 601.67,133.63 590.51,133.1 		"/>
		
			<ellipse transform="matrix(0.1006 -0.9949 0.9949 0.1006 393.366 675.1261)" class="st4" cx="570.09" cy="119.99" rx="1.83" ry="2.15"/>
	</g>
	<g>
		<path class="st4" d="M772.55,408.71l7.33,13.54c0.77,1.21,0.5,1.9-0.17,2.52c-3.14,2.91-12.68,11.78-26.68,15.23
			c-1.81,0.45-2.24-0.4-2.64-1.15l-6.99-12.91c-0.51-0.95,0.06-2.19,1.24-2.67c3.78-1.53,8.61-4.14,13.4-7
			c4.95-2.95,9.16-5.91,11.91-8.32C771.01,407.03,771.97,407.65,772.55,408.71z"/>
		<path class="st4" d="M769.67,413l-2.19,12.19l-12.13-3.09C758.51,421.42,769.67,413,769.67,413z"/>
		<polyline class="st4" points="761.02,423.92 758.04,431.7 751.33,431.09 748.06,425.92 755.36,422.1 		"/>
		
			<ellipse transform="matrix(0.9095 -0.4157 0.4157 0.9095 -105.8023 359.6966)" class="st4" cx="773.19" cy="422.84" rx="1.58" ry="1.34"/>
	</g>
	<g>
		<g>
			<path class="st19" d="M736.85,177.53l29.79,22.8c0.65,0.5,1.59,0.37,2.08-0.29l4.5-6.1c0.47-0.64,0.35-1.53-0.26-2.02
				l-29.37-23.5c-0.66-0.53-1.62-0.39-2.11,0.29l-4.92,6.8C736.08,176.14,736.21,177.04,736.85,177.53z"/>
			<polygon class="st14" points="739.05,176.51 746.28,181.58 750.54,176.49 743.31,170.46 			"/>
			<polygon class="st15" points="749,183.56 756.23,189.3 760.11,184.53 752.83,178.62 			"/>
			<polygon class="st3" points="758.67,191.5 765.89,196.57 769.33,192.15 762.49,186.42 			"/>
		</g>
		<g>
			<path class="st19" d="M796.3,145.65l6.79,57.06c0.15,1.25,1.3,2.14,2.54,1.97l11.5-1.57c1.2-0.16,2.05-1.25,1.94-2.45
				l-5.57-57.34c-0.12-1.28-1.3-2.2-2.57-2.01l-12.71,1.86C797,143.33,796.15,144.43,796.3,145.65z"/>
			<polygon class="st14" points="799.77,146.98 801.92,160.33 812.06,159.57 810.96,145.2 			"/>
			<polygon class="st20" points="802.66,165.42 804.08,179.49 813.46,178.65 812.17,164.35 			"/>
			<polygon class="st15" points="804.26,184.52 806.41,197.87 814.94,196.92 813.92,183.29 			"/>
		</g>
		<path class="st19" d="M781.48,157.79l18.8,55.27c0.32,0.95,1.36,1.45,2.3,1.11l11.78-4.24c0.91-0.33,1.39-1.31,1.1-2.23
			l-17.66-55.81c-0.31-0.98-1.37-1.5-2.33-1.14l-12.92,4.79C781.64,155.87,781.16,156.87,781.48,157.79z"/>
		<polygon class="st3" points="785.29,158.8 790.17,171.41 799.93,168.56 795.87,154.73 		"/>
		<polygon class="st7" points="791.95,176.24 796.27,189.71 805.27,186.94 801.03,173.21 		"/>
		<polygon class="st15" points="797.49,194.59 802.37,207.19 810.52,204.49 806.69,191.38 		"/>
	</g>
	<g>
		<path class="st9" d="M639.78,251.41h-94.94c-3.03,0-5.48-2.46-5.48-5.48v-12.84c0-3.03,2.46-5.48,5.48-5.48h94.94
			c3.03,0,5.48,2.46,5.48,5.48v12.84C645.26,248.96,642.81,251.41,639.78,251.41z"/>
		<path class="st2" d="M604.21,238.23h-51.76c-1,0-1.81-0.81-1.81-1.81v0c0-1,0.81-1.81,1.81-1.81h51.76c1,0,1.81,0.81,1.81,1.81v0
			C606.02,237.42,605.21,238.23,604.21,238.23z"/>
		<line class="st4" x1="551.15" y1="242.93" x2="639.14" y2="242.93"/>
	</g>
	<g>
		<path class="st20" d="M507.63,184.45l-1.5-1.64l-4.96,4.53l1.5,1.64c0.63,0.69,1.71,0.74,2.4,0.11l2.45-2.24
			C508.22,186.22,508.26,185.15,507.63,184.45z"/>
		<path class="st4" d="M498.98,173.84l7.06,7.73c0.36,0.4,0.34,1.02-0.06,1.38l-4.88,4.46c-0.4,0.36-1.02,0.34-1.38-0.06l-7.06-7.73
			c-0.36-0.4-0.34-1.02,0.06-1.38l4.88-4.46C498,173.41,498.62,173.44,498.98,173.84z"/>
	</g>
	<g>
		<rect x="476.41" y="214.74" class="st14" width="8.87" height="8.1"/>
		<polyline class="st4" points="476.41,209.53 476.41,214.74 471.1,214.74 		"/>
	</g>
	<g>
		<rect x="768.66" y="123.27" class="st15" width="8.87" height="8.1"/>
		<polyline class="st4" points="768.66,118.06 768.66,123.27 763.35,123.27 		"/>
	</g>
	<text transform="matrix(1 0 0 1 75.5565 193.5931)" class="st0"><tspan x="0" y="0" class="st21 st22 st23 st24">We work</tspan><tspan x="0" y="36.61" class="st21 st22 st23 st24">your ideas</tspan></text>
	<text transform="matrix(1 0 0 1 75.514 391.55)" class="st25 st22 st26">&gt; see creative work</text>
	<path class="st25" d="M136.3,309.4H83.74c-4.52,0-8.18-3.66-8.18-8.18v-0.93c0-4.52,3.66-8.18,8.18-8.18h52.56
		c4.52,0,8.18,3.66,8.18,8.18v0.93C144.48,305.73,140.82,309.4,136.3,309.4z"/>
	<text transform="matrix(1 0 0 1 86.7842 304.5231)" class="st27 st22 st26">Click Here</text>
	<rect x="75.51" y="256.02" class="st28" width="241.89" height="22.74"/>
	<text transform="matrix(1 0 0 1 75.514 263.1239)" class="st0"><tspan x="0" y="0" class="st21 st29 st26">Description of services, who we are as a company and some </tspan><tspan x="0" y="12" class="st21 st29 st26">filler text about the company</tspan></text>
	<line class="st30" x1="75.51" y1="148.51" x2="89.87" y2="148.51"/>
	<g>
		<path class="st4" d="M528.57,173.34c-91.96-38.12-162.76,35.3,10.59,147.72c13.65,8.85,34.58,11.96,34.58,11.96"/>
		<circle class="st5" cx="443.99" cy="175.9" r="2.62"/>
		<g>
			<polygon class="st4" points="427.3,161.51 430.17,158.75 436.77,162.53 440.08,172.76 429.96,168.52 			"/>
			<polygon class="st4" points="430.17,158.75 427.3,161.51 425.69,159.56 428.45,156.92 			"/>
			<line class="st4" x1="440.08" y1="172.76" x2="433.5" y2="165.53"/>
		</g>
	</g>
	<g>
		<path class="st19" d="M456.03,356.34l7.15,36.83c0.16,0.81,0.95,1.33,1.75,1.16l7.41-1.57c0.77-0.16,1.28-0.91,1.14-1.69
			l-6.37-37.08c-0.14-0.83-0.95-1.37-1.77-1.19l-8.19,1.82C456.37,354.8,455.87,355.56,456.03,356.34z"/>
		<polygon class="st14" points="458.35,357.05 460.39,365.63 466.96,364.66 465.55,355.35 		"/>
		<polygon class="st15" points="461.11,368.92 462.71,378.01 468.78,377.02 467.26,367.76 		"/>
		<polygon class="st3" points="463.07,381.28 465.11,389.87 470.62,388.84 469.3,380.02 		"/>
	</g>
	<g>
		<polygon class="st4" points="660.71,448.66 690.92,440.57 692.07,443.84 661.52,451.77 		"/>
		<g>
			<line class="st4" x1="656.52" y1="444.43" x2="657.39" y2="447.17"/>
			<line class="st4" x1="655.67" y1="446.22" x2="658.22" y2="445.34"/>
		</g>
		<g>
			<line class="st4" x1="655.05" y1="454.9" x2="656.7" y2="460.08"/>
			<line class="st4" x1="653.65" y1="458.19" x2="658.19" y2="456.74"/>
		</g>
		<g>
			<line class="st4" x1="648.15" y1="446.37" x2="650.29" y2="453.22"/>
			<line class="st4" x1="646.02" y1="450.63" x2="652.38" y2="448.6"/>
		</g>
	</g>
	<g>
		<polygon class="st31" points="440.45,120.49 421.33,111.87 422.12,109.68 441.35,118.53 		"/>
		<g>
			<line class="st31" x1="440.83" y1="124.47" x2="441.54" y2="122.67"/>
			<line class="st31" x1="442.03" y1="123.9" x2="440.34" y2="123.27"/>
		</g>
		<g>
			<line class="st31" x1="446.04" y1="119.65" x2="447.38" y2="116.27"/>
			<line class="st31" x1="448.16" y1="118.54" x2="445.19" y2="117.37"/>
		</g>
		<g>
			<line class="st31" x1="446" y1="127.02" x2="447.79" y2="122.55"/>
			<line class="st31" x1="448.91" y1="125.71" x2="444.75" y2="124.06"/>
		</g>
	</g>
	<g>
		<path class="st15" d="M511.89,281.94c-13.47-9.7-26.71-24.78-20.91-40.26c0,0,9.29-6.19,24,1.55c14.71,7.74,14.71,7.74,14.71,7.74
			L511.89,281.94z"/>
		<g>
			<path class="st2" d="M505.78,346.57c-6.06-2.87-31.95-16.34-36.56-39.37c-3.98-19.89,11.24-46.72,18.86-58.57
				c-0.49,15.73,15.31,29.04,22.93,34.53c7.72,5.56,13.4,8.28,21.23,11.22L505.78,346.57z"/>
			<path class="st15" d="M486.92,253.3c1.65,10.45,9.63,21.29,23.21,31.07c7.33,5.28,12.85,8.04,20.02,10.81l-25.04,49.39
				c-7.63-3.8-30.21-16.66-34.41-37.68C467.2,289.43,479.04,266.26,486.92,253.3 M490.98,241.67c0,0-28.65,38.71-23.23,65.81
				c5.42,27.1,38.71,41.04,38.71,41.04l27.87-54.97c-8.71-3.19-14.37-5.79-22.45-11.61C498.41,272.24,485.17,257.16,490.98,241.67
				L490.98,241.67z"/>
		</g>
		<path class="st4" d="M483.45,264.17c0,0,1.67,15.55,17.22,23.88"/>
		<line class="st4" x1="509" y1="293.61" x2="524.55" y2="301.94"/>
		<path class="st4" d="M485.67,286.39c0,0,5,11.11,21.11,18.33"/>
		<path class="st4" d="M472.89,288.05c0,0,0.56,11.66,8.33,15.55"/>
		<path class="st4" d="M490.67,247.51c0,0-1.44,14.98,21.22,34.43"/>
		<path class="st4" d="M499,250.29c0,0,7.22-0.56,17.77,7.22"/>
		<path class="st4" d="M465.04,298.11c-0.46,7.43,0.46,34.36,39.46,51.53"/>
	</g>
	<g>
		<path class="st20" d="M714.07,283.13l-16.54,33.15c0,0,11.22,4.13,2.45,16.99c0,0,20.74,8.6,34.31-13.74
			C747.86,297.2,714.07,283.13,714.07,283.13z"/>
		<g>
			<path class="st2" d="M676.21,384.45c-8.37,0-17.21-3.42-26.28-10.16l30.95-51.26l18.41,11.59l0.12,0.05
				c0.17,0.07,4.27,1.74,10.05,1.74h0c4.65,0,10.52-1.09,16.23-5.13l-22.62,38.7C703.02,370.04,693.28,384.45,676.21,384.45
				C676.21,384.45,676.21,384.45,676.21,384.45z"/>
			<path class="st32" d="M681.38,325.1l17,10.71l0.21,0.14l0.23,0.1c0.18,0.08,4.55,1.86,10.63,1.86c3.55,0,7.77-0.6,12.11-2.54
				l-19.74,33.77c-0.65,0.94-9.81,13.82-25.61,13.82c-7.71,0-15.87-3.05-24.28-9.07L681.38,325.1 M734.29,319.54
				c-7.67,12.62-17.62,15.36-24.83,15.36c-5.55,0-9.48-1.63-9.48-1.63l-19.59-12.34l-32.43,53.73
				c10.86,8.37,20.33,11.28,28.26,11.28c18.12,0,28.15-15.22,28.15-15.22L734.29,319.54L734.29,319.54z"/>
		</g>
		<path class="st4" d="M697.53,316.28c0,0,12.34,4.36,2.45,16.99"/>
		<path class="st4" d="M680,319.78c0,0,16.81,15.39,26.11,15.29s20.21-2.32,26.65-13.42"/>
		<path class="st4" d="M682.07,339.7c0,0,11.54,10.24,24.43,6.95"/>
		<path class="st4" d="M694.18,355.01c0,0,6.05,4.54,14.51,0.25"/>
		<path class="st4" d="M666.34,361.32c0,0,13.96,13.89,35.95,4.73"/>
		<path class="st4" d="M673.94,347.77c0,0,5.7,4.07,9.27,5.37"/>
		<path class="st4" d="M716.91,292.75c0,0,12.75,4.17,14.28,20.99"/>
		<path class="st4" d="M723.32,313.54c0,0,5.87,9.08-4.05,18.17"/>
		<path class="st4" d="M649.14,377.2c0,0,32.01,27.42,55.25-4.64"/>
	</g>
	<line class="st33" x1="418.05" y1="272.78" x2="425.51" y2="272.78"/>
	<line class="st33" x1="833.8" y1="183.02" x2="841.27" y2="183.02"/>
	<line class="st34" x1="633.66" y1="131.81" x2="641.12" y2="131.81"/>
	<line class="st35" x1="848.05" y1="221.73" x2="855.4" y2="223.05"/>
	<line class="st36" x1="554.88" y1="407.95" x2="562.34" y2="407.95"/>
	<text transform="matrix(1 0 0 1 434.5906 38.0911)" class="st25 st29 st26">Home</text>
	<text transform="matrix(1 0 0 1 490.4114 37.5477)" class="st25 st22 st26">About us</text>
	<text transform="matrix(1 0 0 1 558.5238 37.5477)" class="st25 st29 st26">Gallery</text>
	<text transform="matrix(1 0 0 1 614.2808 37.5477)" class="st25 st29 st26">Contact us</text>
	<text transform="matrix(1 0 0 1 693.2848 37.5477)" class="st25 st29 st26">Search</text>
	<path class="st37" d="M832.97,40.76h-83.2c-3,0-5.43-2.43-5.43-5.43V34.8c0-3,2.43-5.43,5.43-5.43h83.2c3,0,5.43,2.43,5.43,5.43
		v0.53C838.4,38.33,835.97,40.76,832.97,40.76z"/>
	<g class="st0">
		<circle class="st38" cx="179.64" cy="352.81" r="15.9"/>
		<g class="st39">
			<defs>
				<circle id="SVGID_1_" class="st40" cx="179.64" cy="352.81" r="15.9"/>
			</defs>
			<clipPath id="SVGID_00000010994017025452379060000002191694218664801208_">
				<use xlink:href="#SVGID_1_"  style="overflow:visible;"/>
			</clipPath>
			<path style="clip-path:url(#SVGID_00000010994017025452379060000002191694218664801208_);fill:#959595;" d="M166.09,366.95
				c0,0,3.94-7.35,9.14-9.32s15.77,0.36,18.1,6.09s-4.84,8.06-14.16,7.71C169.85,371.07,166.09,366.95,166.09,366.95z"/>
			<path style="clip-path:url(#SVGID_00000010994017025452379060000002191694218664801208_);fill:#A4A4A4;" d="M179.4,357.97
				c-2.08,0.87-2.6,3.29-0.35,3.46c2.25,0.17,6.76-2.94,6.76-2.94l0.69-4.14c0.35-4.33,1.46-11.16,0.14-11.67
				c-1.87-0.71-7.47-0.84-9.16-0.44c-1.34,0.31-2.08,2.64-2.41,3.62c-1.04,3.12-3.46,12.39,4.9,9.99L179.4,357.97z"/>
			<path style="clip-path:url(#SVGID_00000010994017025452379060000002191694218664801208_);fill:#242424;" d="M177.98,344.42
				c0,0-1.51,3.56-5.43,3.65s-4.8-5.87-1.87-6.49c2.94-0.62,6.4,0.53,6.4,0.53s-1.42-2.76,1.96-2.76c3.38,0,4.18,2.76,4.18,2.76
				s1.51-1.78,2.67-1.33c1.16,0.44,0.36,1.78,0.36,1.78s2.49-0.27,2.31,0.89c-0.18,1.16-1.33,2.58-1.33,2.58s0,9.16-1.42,9.34
				c-1.42,0.18-2.31-4.45-2.31-4.45l-0.44-4.45C183.05,346.47,178.6,347.98,177.98,344.42z"/>
		</g>
	</g>
	<circle class="st44" cx="90.01" cy="352.81" r="15.9"/>
	<g class="st0">
		<defs>
			<circle id="SVGID_00000147902101576561391490000010565768910437701765_" cx="90.01" cy="352.81" r="15.9"/>
		</defs>
		<clipPath id="SVGID_00000101081771292116266530000008641996959331171727_" class="st45">
			<use xlink:href="#SVGID_00000147902101576561391490000010565768910437701765_"  style="overflow:visible;"/>
		</clipPath>
		<path style="display:inline;clip-path:url(#SVGID_00000101081771292116266530000008641996959331171727_);fill:#7595EC;" d="
			M76.47,366.95c0,0,3.94-7.35,9.14-9.32s15.77,0.36,18.1,6.09s-4.84,8.06-14.16,7.71C80.23,371.07,76.47,366.95,76.47,366.95z"/>
		<path style="display:inline;clip-path:url(#SVGID_00000101081771292116266530000008641996959331171727_);fill:#F9865F;" d="
			M89.77,357.97c-2.08,0.87-2.6,3.29-0.35,3.46c2.25,0.17,6.76-2.94,6.76-2.94l0.69-4.14c0.35-4.33,1.46-11.16,0.14-11.67
			c-1.87-0.71-7.47-0.84-9.16-0.44c-1.34,0.31-2.08,2.64-2.41,3.62c-1.04,3.12-3.46,12.39,4.9,9.99L89.77,357.97z"/>
		<path style="display:inline;clip-path:url(#SVGID_00000101081771292116266530000008641996959331171727_);fill:#2A1E33;" d="
			M88.35,344.42c0,0-1.51,3.56-5.43,3.65c-3.91,0.09-4.8-5.87-1.87-6.49c2.94-0.62,6.4,0.53,6.4,0.53s-1.42-2.76,1.96-2.76
			s4.18,2.76,4.18,2.76s1.51-1.78,2.67-1.33c1.16,0.44,0.36,1.78,0.36,1.78s2.49-0.27,2.31,0.89c-0.18,1.16-1.33,2.58-1.33,2.58
			s0,9.16-1.42,9.34c-1.42,0.18-2.31-4.45-2.31-4.45l-0.44-4.45C93.42,346.47,88.98,347.98,88.35,344.42z"/>
	</g>
	<circle class="st49" cx="133.55" cy="352.81" r="15.9"/>
	<g class="st50">
		<defs>
			<circle id="SVGID_00000028284995595193241090000004407727482299605145_" class="st40" cx="133.55" cy="352.81" r="15.9"/>
		</defs>
		<clipPath id="SVGID_00000131335267051004585040000011627906969919179180_" class="st45">
			<use xlink:href="#SVGID_00000028284995595193241090000004407727482299605145_"  style="overflow:visible;"/>
		</clipPath>
		<path style="display:inline;clip-path:url(#SVGID_00000131335267051004585040000011627906969919179180_);fill:#959595;" d="
			M120.01,366.95c0,0,3.94-7.35,9.14-9.32s15.77,0.36,18.1,6.09s-4.84,8.06-14.16,7.71C123.77,371.07,120.01,366.95,120.01,366.95z"
			/>
		<path style="display:inline;clip-path:url(#SVGID_00000131335267051004585040000011627906969919179180_);fill:#A4A4A4;" d="
			M133.31,357.97c-2.08,0.87-2.6,3.29-0.35,3.46c2.25,0.17,6.76-2.94,6.76-2.94l0.69-4.14c0.35-4.33,1.46-11.16,0.14-11.67
			c-1.87-0.71-7.47-0.84-9.16-0.44c-1.34,0.31-2.08,2.64-2.41,3.62c-1.04,3.12-3.46,12.39,4.9,9.99L133.31,357.97z"/>
		<path style="display:inline;clip-path:url(#SVGID_00000131335267051004585040000011627906969919179180_);fill:#242424;" d="
			M131.89,344.42c0,0-1.51,3.56-5.43,3.65c-3.91,0.09-4.8-5.87-1.87-6.49c2.94-0.62,6.4,0.53,6.4,0.53s-1.42-2.76,1.96-2.76
			c3.38,0,4.18,2.76,4.18,2.76s1.51-1.78,2.67-1.33c1.16,0.44,0.36,1.78,0.36,1.78s2.49-0.27,2.31,0.89
			c-0.18,1.16-1.33,2.58-1.33,2.58s0,9.16-1.42,9.34s-2.31-4.45-2.31-4.45l-0.44-4.45C136.96,346.47,132.52,347.98,131.89,344.42z"
			/>
	</g>
	<circle class="st54" cx="864.13" cy="314.92" r="2.47"/>
	<circle class="st54" cx="399.75" cy="196.29" r="2.47"/>
	<path class="st55" d="M233.83,429.01"/>
	<circle class="st13" cx="892.89" cy="474.15" r="2.62"/>
	<circle class="st13" cx="1042.32" cy="385.61" r="2.62"/>
	<g class="st0">
		<text transform="matrix(1 0 0 1 172.2386 38.3066)" class="st21 st29 st56">By Design</text>
		<text transform="matrix(1 0 0 1 75.1429 38.0161)" class="st45"><tspan x="0" y="0" class="st8 st22 st57">Landing</tspan><tspan x="40.89" y="0" class="st8 st58 st57">Page</tspan></text>
		<circle class="st59" cx="166.69" cy="36.14" r="2.12"/>
		<g class="st45">
			<path class="st7" d="M63.52,26.62l3.98-0.1l2.01,6.24c0.21,0.64,0.17,1.33-0.11,1.94l-4.02,8.85l-4.14-8.91
				c-0.31-0.67-0.33-1.44-0.06-2.13L63.52,26.62z"/>
			<path class="st5" d="M67.5,26.52l-3.98,0.1l0.03-0.64c0.05-1.05,0.93-1.87,1.98-1.86l0,0c1.01,0.02,1.84,0.8,1.92,1.81
				L67.5,26.52z"/>
			<line class="st60" x1="65.38" y1="43.55" x2="65.39" y2="33.76"/>
		</g>
	</g>
	<rect class="st28" width="900" height="500"/>
</g>
</svg>
