<svg xmlns="http://www.w3.org/2000/svg" viewBox="0 0 28.35 28.35"><defs><style>.cls-1{fill:#ffffff;}.cls-2{fill:#2A68D3;}</style></defs><g id="Слой_2" data-name="Слой 2"><g id="Слой_1-2" data-name="Слой 1"><rect class="cls-1" width="28.35" height="28.35"/><polygon class="cls-2" points="2.36 25.98 5.58 25.98 2.36 20.75 2.36 25.98"/><polygon class="cls-2" points="2.36 15.67 8.71 25.98 12.63 25.98 2.36 9.34 2.36 15.67"/><polygon class="cls-2" points="2.36 2.36 2.36 4.26 15.75 25.98 19.67 25.98 5.09 2.36 2.36 2.36"/><polygon class="cls-2" points="8.68 2.36 23.24 25.98 25.98 25.98 25.98 24.09 12.58 2.36 8.68 2.36"/><polygon class="cls-2" points="15.72 2.36 25.98 18.99 25.98 12.66 19.62 2.36 15.72 2.36"/><polygon class="cls-2" points="25.98 7.58 25.98 2.36 22.76 2.36 25.98 7.58"/></g></g></svg>