<svg xmlns="http://www.w3.org/2000/svg" viewBox="0 0 380.01 454.54"><defs><style>.cls-1{fill:#fff;}</style></defs><title>Ресурс 22</title><g id="Слой_2" data-name="Слой 2"><g id="Слой_1-2" data-name="Слой 1"><path class="cls-1" d="M158.68,454.54a16.8,16.8,0,0,1-16.49-15.92c-.06-.92-.05-1.78,0-2.53V271q0-55.45,0-110.9c0-9.48,4.85-13.95,8.92-16,6.23-3.18,12.8-2.34,18.51,2.35q10.86,8.94,21.76,17.83l141.33,115.6,40.73,33.32c6,4.91,8.09,11.88,5.6,18.66s-8.48,10.78-16.38,10.78H352.17c-36.15,0-73.52,0-110.3-.05C219.62,376,197,410,175,442.84l-2.23,3.34C169.17,451.63,164.05,454.54,158.68,454.54Zm-2.53-156.42v138.1c0,.57,0,1.1,0,1.52.1,1.64.66,2.05,1.43,2.46s1.76.91,3.56-1.79l2.23-3.34c22.09-33.13,44.93-67.38,67.35-101.09A11.47,11.47,0,0,1,241,328.52h0c37.06.07,74.74.06,111.19.05h10.42c2.66,0,3-.81,3.25-1.6s.54-1.48-1.33-3l-40.72-33.31L182.46,175.05q-10.9-8.91-21.79-17.85c-1.77-1.46-2.42-1.12-3.25-.7-.64.33-1.29.66-1.29,3.55q0,55.45,0,110.91Z"/><path class="cls-1" d="M115.07,106.3a9.3,9.3,0,0,1-15.69,6.11c-3.63-3.43-7.12-7-10.65-10.54Q68,81.14,47.2,60.41c-3-3-4.42-6.44-2.92-10.61a9.27,9.27,0,0,1,14.77-3.93,24.26,24.26,0,0,1,1.82,1.69Q86,72.72,111.21,97.88C113.4,100.06,115.07,102.44,115.07,106.3Z"/><path class="cls-1" d="M149.16,46.64c0-12.07,0-24.13,0-36.2,0-5.54,2.6-9.08,7.33-10.19a9.12,9.12,0,0,1,11,6.84,13.86,13.86,0,0,1,.36,3.21q0,36.33,0,72.65c0,5.41-2.81,9-7.58,10a9.11,9.11,0,0,1-10.79-6.89,18.08,18.08,0,0,1-.36-4Q149.14,64.36,149.16,46.64Z"/><path class="cls-1" d="M52.09,273.19a8.64,8.64,0,0,1-7.34-5,8.9,8.9,0,0,1,.69-9.67,16,16,0,0,1,1.81-2.05Q72.68,231,98.1,205.62c2.91-2.91,6.21-4.54,10.33-3.19a9.21,9.21,0,0,1,3.68,15.49c-6.39,6.56-12.92,13-19.38,19.46q-16,16.08-32.06,32.17A11,11,0,0,1,52.09,273.19Z"/><path class="cls-1" d="M263.87,43.81A9.29,9.29,0,0,1,271,59a15.77,15.77,0,0,1-1.37,1.46q-25.4,25.46-50.8,50.92c-2.39,2.39-5,4.07-8.61,3.6a8.88,8.88,0,0,1-7.58-5.69,9,9,0,0,1,1.51-9.59c.43-.51.89-1,1.36-1.46Q231,72.75,256.42,47.34C258.48,45.28,260.75,43.68,263.87,43.81Z"/><path class="cls-1" d="M46.62,149.2c12.15,0,24.31,0,36.46,0,5.35,0,9.21,3,10,7.55a9.29,9.29,0,0,1-8.35,10.93,19,19,0,0,1-2,.07q-36.09,0-72.18,0c-3.54,0-6.62-.94-8.73-3.9A8.81,8.81,0,0,1,1,154.43a8.57,8.57,0,0,1,7.91-5.17c4.91-.11,9.82-.06,14.73-.06Z"/><path class="cls-1" d="M270.29,167.76c-12.15,0-24.31,0-36.46,0-7.15,0-11.68-6.1-9.37-12.43a8.72,8.72,0,0,1,7.57-6,20.79,20.79,0,0,1,2.74-.11H306.2c2.17,0,4.34.06,6.26,1.27a9.28,9.28,0,0,1-4.95,17.27c-9.74.08-19.48,0-29.22,0Z"/></g></g></svg>