<svg xmlns="http://www.w3.org/2000/svg" viewBox="0 0 282.18 329.2"><defs><style>.cls-1{fill:#fff;}</style></defs><title>Ресурс 31</title><g id="Слой_2" data-name="Слой 2"><g id="Слой_1-2" data-name="Слой 1"><path class="cls-1" d="M271.51,218.79H230.76v-14a4.83,4.83,0,0,0-9.65,0v14H200.19V181a4.82,4.82,0,1,0-9.64,0V218.8h-29.2L153,169.59l2.34-3.52c2.08,1.47,4.13,2.52,7.15,1.76a7.68,7.68,0,0,0,5-4l11.76-23.58,26.87,10.41c.73.32,14.94,6.69,14.94,23.38v8.31a4.83,4.83,0,0,0,9.65,0V174c0-23.43-20.1-32-20.95-32.31l-.09,0L164.24,124v-9.68A37.13,37.13,0,0,0,177.81,91a17.54,17.54,0,0,0,9.57-4.15,17.34,17.34,0,0,0,2-24.19V48.75a48.75,48.75,0,0,0-97.5,0V63a16.37,16.37,0,0,0-4,10.68,17.3,17.3,0,0,0,6,13.14,17.6,17.6,0,0,0,9.6,4.15A37.51,37.51,0,0,0,117.88,115V124L72.46,141.65l-.09,0c-.86.36-21,8.89-21,32.32v44.79H10.64A10.69,10.69,0,0,0,0,229.46v25a10.67,10.67,0,0,0,10.65,10.66v54a10.05,10.05,0,0,0,10,10H129.84a4.82,4.82,0,1,0,0-9.64H20.69a.39.39,0,0,1-.39-.4v-54H261.88v54a.4.4,0,0,1-.4.4H152.34a4.82,4.82,0,1,0,0,9.64H261.48a10,10,0,0,0,10-10v-54a10.67,10.67,0,0,0,10.66-10.66v-25A10.69,10.69,0,0,0,271.51,218.79ZM170.27,136.72l-10.36,20.75L148,149,161,133.11Zm-29.19,19.2,6.42,4.56-2.14,3.21h-8.57l-2.14-3.21ZM127.53,125.6v-5.44a41,41,0,0,0,13.61,2.3,37.58,37.58,0,0,0,13.45-2.53v5.7l-13.51,16.69Zm10.75,47.74h5.59l7.7,45.45h-21Zm45.47-99.62a7.69,7.69,0,0,1-2.66,5.83,8,8,0,0,1-2.85,1.56V66.34A7.72,7.72,0,0,1,183.75,73.72Zm-80.64,7.39a7.79,7.79,0,0,1-2.85-1.56,7.7,7.7,0,0,1-2.67-5.83A7.12,7.12,0,0,1,100,68.55s0,0,0,0a9.56,9.56,0,0,1,3.08-1.88Zm2.51-27.72a8.28,8.28,0,0,0-2.08,3.19,19.14,19.14,0,0,0-2,.41V48.75h0a39.11,39.11,0,0,1,78.21,0v8c-.51-.11-1-.2-1.55-.27,0-1.71-.46-2.75-2.06-4.69S172,47.23,165.84,40.61a7.81,7.81,0,0,0-10-1.22c-13.16,8.6-29.31,13-44.33,11.94A7.85,7.85,0,0,0,105.62,53.39Zm7.14,32V61.06A80.39,80.39,0,0,0,140,57.4a85.4,85.4,0,0,0,19.87-9.1c1.76,1.89,3.22,3.44,4.42,4.72l.23.25,1.23,1.31C167,56,168,57.09,168.59,57.73V85.37a27.49,27.49,0,0,1-27.45,27.44C124.48,112.81,112.76,100,112.76,85.37Zm8.42,47.74,12.91,15.94-11.85,8.42-10.36-20.75ZM61.06,174c0-16.66,14-23,15-23.38l26.83-10.41,11.77,23.58h0a7.71,7.71,0,0,0,6.91,4.27,8.37,8.37,0,0,0,5.26-2l2.35,3.52-8.33,49.2H91.63V181A4.82,4.82,0,1,0,82,181v37.75H61.06Zm211.47,80.46a1,1,0,0,1-1,1H10.66a1,1,0,0,1-1-1v-25a1,1,0,0,1,1-1H271.51a1,1,0,0,1,1,1Z"/></g></g></svg>