<svg xmlns="http://www.w3.org/2000/svg" viewBox="0 0 276.85 361.13"><defs><style>.cls-1{fill:#fff;}</style></defs><title>Ресурс 23</title><g id="Слой_2" data-name="Слой 2"><g id="Слой_1-2" data-name="Слой 1"><path class="cls-1" d="M138.39,126.47q59.54,0,119.07,0c6.48,0,11.78,2.17,15.77,7.34,2.8,3.63,3.61,7.84,3.61,12.31q0,75.35,0,150.7c0,15.11,0,30.22,0,45.33,0,9.22-5.25,16.26-13.57,18.42a19,19,0,0,1-5,.59H18.52C8,361.12.48,353.79,0,343.32c0-.6,0-1.21,0-1.81V145.28c0-8.81,4.65-15.33,12.76-18a21.55,21.55,0,0,1,7-.8ZM251.55,348.86a45.83,45.83,0,0,0,8,.12,6,6,0,0,0,4.87-4,17.54,17.54,0,0,0,.46-4q0-97.1,0-194.19c0-.54,0-1.08,0-1.61-.28-3.55-1.64-5.77-4.27-6.38a24.36,24.36,0,0,0-9.36-.21c-.94-.07-1.88-.19-2.81-.19H19.59c-5.41,0-7.58,2.18-7.58,7.61q0,97.8,0,195.61C12,347,14.13,349,19.49,349H249.15C250,349,250.75,348.92,251.55,348.86Z"/><path class="cls-1" d="M72.1,114.39c-5.91,0-11.82,0-17.73,0a11.89,11.89,0,0,1-12.25-12.18c0-11.28-.07-22.56,0-33.84,0-1.86-.54-2.23-2.24-2.16-3.22.14-6.45.07-9.67,0-5.31-.06-9.21-2.53-11.2-7.4s-1-9.51,2.77-13.33Q36.61,30.67,51.44,15.88C55.38,11.94,59.3,8,63.27,4.07,68.71-1.3,75.66-1.4,81.12,4,94,16.83,106.87,29.73,119.74,42.6c1.13,1.13,2.3,2.25,3.38,3.45a11.53,11.53,0,0,1,2.14,13.1,11.35,11.35,0,0,1-10.81,7.08c-3.42.08-6.85.1-10.27,0-1.57,0-1.89.49-1.88,2q.09,16.71,0,33.44c0,6.14-3.35,10.81-8.71,12.36a12.69,12.69,0,0,1-3.58.44C84.05,114.38,78.08,114.39,72.1,114.39ZM30.4,53.61l.37.55H46.68c5.25,0,7.5,2.23,7.5,7.45,0,12.76,0,25.52,0,38.28,0,1.94.33,2.61,2.47,2.58,10.34-.13,20.69-.06,31-.06,2.57,0,2.57,0,2.57-2.62q0-19.14,0-38.28c0-5,2.29-7.33,7.21-7.35s9.67,0,14.51,0c.6,0,1.33.32,1.87-.43-.26-.31-.5-.62-.78-.9L74.08,14c-1.87-1.87-1.87-1.87-3.69-.06Q53.5,30.82,36.6,47.67C34.57,49.69,32.47,51.63,30.4,53.61Z"/><path class="cls-1" d="M204.69.05c5.71,0,11.42,0,17.13,0,7.8,0,12.87,5.06,12.89,12.86,0,11.15,0,22.29,0,33.44,0,1.52.37,1.9,1.88,1.88a111.47,111.47,0,0,1,11.27.11,11.31,11.31,0,0,1,10,7.34A11,11,0,0,1,256,67.77C252.13,72,248,76,244,80q-15,15.06-30,30.06c-5.85,5.84-12.79,5.83-18.62,0q-20.3-20.3-40.6-40.58c-4-3.94-5.4-8.52-3.33-13.76s6.3-7.44,11.77-7.52c3.09,0,6.18-.1,9.26,0,1.65.07,2.15-.36,2.14-2.08-.08-10.94.18-21.9-.12-32.83C174.24,6,179.54-.25,187.77,0,193.4.19,199.05.05,204.69.05ZM162.74,60.32c.48.59.62.8.8,1q20,20,40,40c1.1,1.1,1.58.55,2.36-.23q17.72-17.74,35.46-35.46c1.64-1.64,3.4-3.15,5.22-4.82a3.79,3.79,0,0,0-2.48-.5c-4.63,0-9.26,0-13.9,0-5.3,0-7.55-2.28-7.56-7.63,0-12.82,0-25.65,0-38.47,0-1.7-.47-2.08-2.12-2.07q-16,.1-32,0c-1.64,0-2,.5-2,2,.06,12.75,0,25.51,0,38.27,0,5.71-2.19,7.89-7.92,7.9Z"/><path class="cls-1" d="M252.44,218.08c.59,7.29.31,14.6.37,21.9a71.18,71.18,0,0,1-.44,10.63c-2.11,7.71-6.94,12.51-14.9,14a14.59,14.59,0,0,1-6.77-.36c-1.95-.57-2.07.16-2,1.75.07,6.51,0,13,0,19.54,0,13.16.06,26.32,0,39.48a17.09,17.09,0,0,1-9.44,15.76c-6.54,3.53-13.05,3.09-19.15-1.24-1.09-.77-1.68-.91-2.88-.06-5.85,4.17-12.18,4.8-18.62,1.62s-9.95-8.72-10-16c-.1-19.6,0-39.21,0-58.82,0-2.34.15-2.5-2.41-1.95A17.74,17.74,0,0,1,144.48,247c-.12-7.92-.06-15.85,0-23.77.07-16.47,11.6-29,28-30.43,2-.17,1.83-.62.95-2A30,30,0,0,1,198,144.43c14.86-.56,28.6,11.29,30.33,26a30.36,30.36,0,0,1-4.9,20.88c-.15.23-.29.45-.42.69a3.53,3.53,0,0,0-.11.56c1.16.15,2.32.28,3.47.44a29.74,29.74,0,0,1,25.74,23.51ZM216.62,274V229.43c0-2.28-.06-4.57,0-6.85a6,6,0,0,1,6.41-5.8c3.29.16,5.59,2.74,5.61,6.42,0,7.73,0,15.45,0,23.17,0,4.07,2.81,6.7,6.63,6.36,3.2-.28,5.4-2.81,5.42-6.38q0-11.28,0-22.57c0-11.41-7.67-19.08-19.07-19.11q-14.8,0-29.61,0c-6.25,0-12.5-.14-18.74.09-8.83.33-16.55,7.93-16.76,16.56s-.1,17.05,0,25.58a5.7,5.7,0,0,0,5.7,5.85,5.78,5.78,0,0,0,6.17-5.36,21.48,21.48,0,0,0,.1-2.41c0-7.32,0-14.64,0-22,0-3.6,2.46-6.15,5.76-6.24s5.83,2.15,6.21,5.8c.08.8.06,1.61.06,2.42q0,48.94,0,97.91a20.16,20.16,0,0,0,.12,3,5.92,5.92,0,0,0,10.14,3.25c1.58-1.56,1.78-3.51,1.78-5.58q0-28.39,0-56.81a18.09,18.09,0,0,1,.18-3.21,5.88,5.88,0,0,1,9.25-3.65c2.17,1.56,2.59,3.74,2.58,6.21q0,28.61,0,57.21a17.48,17.48,0,0,0,.12,2.61,5.92,5.92,0,0,0,5.91,5c3.57,0,6-2.65,6-6.66Q216.64,299.14,216.62,274Zm-36-99.38a18,18,0,1,0,17.84-18A18,18,0,0,0,180.61,174.57Z"/><path class="cls-1" d="M54.12,192.64c-.9-1.55-1.71-2.85-2.43-4.19-10-18.79,2.62-42,23.84-43.82a30,30,0,0,1,29.92,42.42,29.54,29.54,0,0,1-2.29,4c-.84,1.26-.64,1.61.9,1.71a29.61,29.61,0,0,1,20.14,9.36,28.28,28.28,0,0,1,8.09,19.24c.21,8.52.16,17.05.06,25.58a17.74,17.74,0,0,1-21.62,17.37c-2.77-.59-2.43-.29-2.43,2.12q0,28.91,0,57.82c0,7.72-3.3,13.52-10.23,16.9-6.37,3.12-12.66,2.52-18.42-1.69-1.18-.86-1.78-.74-2.89,0-5.88,4.16-12.23,4.74-18.64,1.54A17.06,17.06,0,0,1,48.17,325c-.1-19.61-.06-39.22,0-58.84,0-1.81-.21-2.33-2.27-1.89a17.81,17.81,0,0,1-21.85-17.52c-.1-8-.08-16,0-24a30.06,30.06,0,0,1,28.74-30.05Zm42.13,81.57q0-24.67,0-49.36A20.36,20.36,0,0,1,96.4,222a5.78,5.78,0,0,1,6.07-5.26,5.88,5.88,0,0,1,5.78,5.59c.13,1.87,0,3.76.06,5.64,0,6.38-.07,12.76.15,19.13a5.58,5.58,0,0,0,6.09,5.6,5.77,5.77,0,0,0,5.75-6c0-8.26.17-16.52-.06-24.78a17.64,17.64,0,0,0-17.58-17.21q-24.37-.18-48.75,0c-8.81.05-16.37,6.17-17.42,14.87-1.13,9.33-.45,18.78-.26,28.17.06,2.92,2.94,5,5.9,5,3.61,0,6-2.6,6-6.62,0-7.72,0-15.44,0-23.17a5.82,5.82,0,0,1,3.89-5.8,5.61,5.61,0,0,1,6.31,1.33c1.57,1.51,1.89,3.44,1.89,5.53q0,49.57,0,99.13a17.61,17.61,0,0,0,.08,2.62,5.94,5.94,0,0,0,10.49,3c1.36-1.55,1.45-3.39,1.45-5.29V266.7c0-.87,0-1.75.06-2.62A5.75,5.75,0,0,1,76,259.22a5.52,5.52,0,0,1,5.71.74c2.23,1.62,2.55,4,2.55,6.45v56.81a22.78,22.78,0,0,0,.09,2.62,5.9,5.9,0,0,0,8.86,4.3c2.33-1.41,3-3.55,3-6.16Q96.22,299.09,96.25,274.21Zm0-99.5a18,18,0,1,0-17.95,17.92A18,18,0,0,0,96.21,174.71Z"/></g></g></svg>