<svg xmlns="http://www.w3.org/2000/svg" viewBox="0 0 361.54 348.48"><defs><style>.cls-1{fill:#fff;}</style></defs><title>Ресурс 24</title><g id="Слой_2" data-name="Слой 2"><g id="Слой_1-2" data-name="Слой 1"><path class="cls-1" d="M356.32,212.6c4.12,1.14,5.21,2.57,5.21,6.87q0,51.33,0,102.66c0,15.32-11,26.35-26.27,26.35h-309C11.08,348.48,0,337.4,0,322.26V65.09C0,53.86,7.61,46.25,18.87,46.23q23,0,46,0a18,18,0,0,1,6.36.85,5.31,5.31,0,0,0,3,0q25.64-4.87,51.26-9.78l88.86-16.94,89.06-17c5.6-1.07,11.2-2.28,16.84-3.1,12.28-1.79,23.44,6.11,25.49,17.84a22.36,22.36,0,0,1-18.19,26.19q-37,7.13-74,14.12L174.35,73.52l-56.22,10.7a5.79,5.79,0,0,0-2.43.91H343c10.82,0,18.52,7.7,18.52,18.56q0,44.07,0,88.14c0,4.12-1.27,5.71-5.24,6.59-4-.77-5.31-2.35-5.31-6.48,0-18.29,0-36.58,0-54.86,0-2-.49-2.4-2.42-2.4q-67.17.09-134.35,0H56.51c-4.55,0-6.15-1.2-7-5.24.74-4,2.35-5.31,6.5-5.31q126,0,252,0c13.65,0,27.3,0,40.95,0,1.48,0,2.12-.23,2.09-1.94-.11-6.19,0-12.37,0-18.56,0-4.94-3-7.83-8-7.83q-17.44,0-34.9,0H14a12.36,12.36,0,0,1-1.61,0c-1.4-.18-1.83.36-1.82,1.78q.09,12.4,0,24.81c0,1.43.42,1.82,1.82,1.8,5.65-.07,11.3,0,17,0,3.82,0,5.5,1.43,6.14,5.19-1.29,4.62-2.31,5.35-7.37,5.35-5.24,0-10.49,0-15.73,0-1.4,0-1.81.34-1.81,1.78q.06,71.49,0,143c0,1.52.55,1.71,1.85,1.7,5.31-.07,10.62-.09,15.93,0,1.57,0,2-.36,2-2-.07-12,0-23.93,0-35.9,0-8.4,5.91-14.27,14.36-14.27l272.31,0c8.43,0,14.35,5.9,14.35,14.28,0,12,0,23.94,0,35.9,0,1.62.44,2,2,2,5.17-.1,10.35-.14,15.53,0,1.95.06,2.23-.62,2.23-2.35-.06-19.77,0-39.53,0-59.3C351,215,352.05,213.63,356.32,212.6Zm-109.4,27.07c-.8,0-1.61-.08-2.41-.08H78.27a5.68,5.68,0,0,1-1,0c-1.24-.21-1.58.43-1.75,1.54q-4.59,30.19-9.22,60.37c-1,6.63,2.22,10.27,9,10.27H251.78c.8,0,1.61-.06,2.41-.09s1.47.11,2.2.11h29.66c7.13,0,10.25-3.61,9.18-10.6q-4.58-30-9.13-60c-.22-1.43-.8-1.68-2.08-1.67-9,0-18,0-27,0C253.64,239.58,250.28,239.64,246.92,239.67Zm-66.14,98.25v0H335.3c9.2,0,15.65-6.4,15.67-15.58,0-9.48-.05-19,0-28.44,0-1.84-.54-2.21-2.27-2.2-14,.06-28,0-42,0-2.36,0-2.29,0-2,2.35.55,3.91,1.73,7.77,1.25,11.78-1.2,10-9.69,16.6-19.34,16.58q-105.9-.2-211.81-.07c-.67,0-1.34,0-2,0A18.53,18.53,0,0,1,55.64,307c-.76-4.51.5-8.81,1.16-13.18.23-1.5.06-2.12-1.72-2.11q-21.28.1-42.56,0c-1.66,0-2,.53-2,2.06.06,9.35,0,18.69,0,28,0,9.91,6.24,16.16,16.1,16.16ZM85.06,71.36V76.6c0,3.17,0,3.15,3.08,2.56Q113,74.41,137.8,69.67l83.9-16q39.57-7.53,79.14-15.09c8.38-1.6,16.77-3.11,25.13-4.81a11.66,11.66,0,0,0,9.22-13.88,11.58,11.58,0,0,0-13.7-9.16q-32.65,6.13-65.31,12.38-44.62,8.48-89.24,17L108.57,51.25q-12.16,2.32-24.33,4.69c-.62.12-1.76-.09-1.12,1.2C85.36,61.66,85.12,66.52,85.06,71.36ZM42.57,85.07c10,0,19.9,0,29.84,0,1.62,0,2-.46,2-2-.09-5.65,0-11.29,0-16.94s-3.53-9.25-9.16-9.26q-23.28-.06-46.57,0c-5.09,0-8,3-8,8,0,6,.07,12.1,0,18.14,0,1.78.58,2.06,2.17,2C22.68,85,32.63,85.07,42.57,85.07ZM40.85,261.36c0,5.91,0,11.82,0,17.73,0,1.5.26,2.12,2,2.07,4.7-.12,9.41-.1,14.1,0,1.49,0,1.9-.47,2.11-1.89q2.84-19,5.86-38c.21-1.32-.06-1.75-1.47-1.74-6.17.07-12.35,0-18.53,0-2.88,0-4,1.13-4,4C40.84,249.55,40.85,255.46,40.85,261.36Zm279.84.05c0-6,0-12,0-17.92,0-2.71-1.13-3.89-3.74-3.9-6.31,0-12.62,0-18.93,0-1.12,0-1.56.24-1.36,1.48q3,19.28,6,38.56c.17,1.18.61,1.56,1.79,1.54,4.84-.05,9.67-.07,14.51,0,1.41,0,1.82-.41,1.8-1.81C320.65,273.36,320.69,267.39,320.69,261.41Z"/><path class="cls-1" d="M300.21,183.56h-28a8.69,8.69,0,0,1-9.06-8.78q-.15-9.06,0-18.13a8.64,8.64,0,0,1,7.39-8.33,20.12,20.12,0,0,1,3-.2l53,0c7.3,0,10.75,3.43,10.75,10.7,0,5.1,0,10.21,0,15.32,0,5.69-3.79,9.45-9.46,9.45q-13.8,0-27.61,0ZM300.07,173v0c8.19,0,16.39,0,24.59,0,1.41,0,2.06-.26,2-1.86-.11-3.56-.07-7.12,0-10.68,0-1.23-.23-1.8-1.65-1.8q-24.88,0-49.78,0c-1.4,0-1.67.55-1.65,1.79.06,3.56.09,7.12,0,10.68-.05,1.5.4,1.94,1.92,1.93C283.67,173,291.87,173,300.07,173Z"/><path class="cls-1" d="M180.68,291.71H120.79a6.45,6.45,0,0,1-4.21-1.05,5.28,5.28,0,0,1-1.89-5.76,5.34,5.34,0,0,1,4.56-3.75,8.28,8.28,0,0,1,1.41,0H240.85c3.62,0,6,1.9,6.18,4.95a5.15,5.15,0,0,1-4.65,5.59,20.32,20.32,0,0,1-2.21,0Z"/><path class="cls-1" d="M180.62,267.77H120.93a7.39,7.39,0,0,1-3.53-.62,5.25,5.25,0,0,1,1.91-9.94c.47,0,.94,0,1.41,0H240.91c3.34,0,5.52,1.52,6,4.16a5.27,5.27,0,0,1-5.22,6.4c-3,.08-6.05,0-9.08,0Z"/></g></g></svg>