<svg xmlns="http://www.w3.org/2000/svg" viewBox="0 0 347.61 347.58"><defs><style>.cls-1{fill:#fff;}</style></defs><title>Ресурс 21</title><g id="Слой_2" data-name="Слой 2"><g id="Слой_1-2" data-name="Слой 1"><path class="cls-1" d="M188.26,221.76c-2.79-4.4-2.52-6.74,1.29-10.55L298,102.71c2.3-2.29,2.3-2.29-.08-4.67Q273.51,73.6,249.08,49.12c-1.53-1.53-2.29-1.61-3.88,0Q155.59,138.85,65.89,228.49c-2.9,2.9-2.9,3.26,0,6.21l46.93,47c2.9,2.9,3.29,2.89,6.22,0q23.41-23.42,46.83-46.82c3.46-3.47,6.29-3.68,10.11-.83,2.76,3.73,2.57,6.6-.75,9.92q-24,24-48,48.08A15.39,15.39,0,0,1,112,296.48a2.58,2.58,0,0,0-2.76,1c-4.36,4.37-8.76,8.68-13.07,13.09s-9.47,6-15.46,4.52a2.15,2.15,0,0,0-2.33.86c-2.7,2.72-5.43,5.42-8.12,8.14-4.74,4.79-10.3,6.59-16.82,4.43a2.85,2.85,0,0,0-2.74.6q-11.47,7.5-22.93,15.05c-7.6,5-16.49,4.42-22.62-1.62s-6.82-15.1-1.87-22.64,10-15.29,15.06-22.92a3.08,3.08,0,0,0,.66-3c-2.12-6.45-.24-11.93,4.38-16.63q4-4.11,8.14-8.12a2.59,2.59,0,0,0,.85-2.8,14.85,14.85,0,0,1,3.88-14.28c4.52-4.66,9.14-9.23,13.77-13.79a3,3,0,0,0,1-3.21,15.2,15.2,0,0,1,3.43-13.74c.53-.64,1.13-1.22,1.72-1.81L267.85,8c8.74-8.74,20.28-10.42,30.52-4.48a23.18,23.18,0,0,1,4.91,3.81q18.44,18.45,36.88,36.91c9.93,10,9.95,24.85,0,34.83q-70.9,71-141.89,141.91C195,224.23,192.5,224.41,188.26,221.76ZM299.09,22a35.67,35.67,0,0,0-6.34-6.3c-4.66-3.54-10.11-3.57-14.33.44-7.12,6.76-13.94,13.83-20.92,20.75-.77.77-.77,1.32,0,2,3.39,3.18,6.4,6.75,10,9.71a5.87,5.87,0,0,0,.55.82q20.18,20.19,40.34,40.4c1.25,1.26,1.85.66,2.76-.26q9.31-9.37,18.69-18.71c6.17-6.18,6.19-12.21,0-18.37q-13.49-13.5-27-27C301.67,24.29,300.36,23.15,299.09,22ZM80,267.49c-6.3-6.3-12.62-12.56-18.86-18.91-1.15-1.18-1.78-1.15-2.9,0-3.88,4-7.87,7.91-11.81,11.87-2,2-2,2.75,0,4.74q18,18,36,36c1.65,1.66,2.94,1.73,4.59,0,4-4.06,7.94-8.08,12-12,1.24-1.2,1-1.83-.08-2.92C92.57,280.1,86.3,273.78,80,267.49ZM55.08,292.55c-4.24-4.23-8.5-8.44-12.68-12.72-1-1-1.63-1.3-2.75-.09-2.31,2.5-4.77,4.88-7.22,7.25-1.56,1.52-1.64,2.83,0,4.43Q44.29,303.18,56,315.06c1.69,1.72,3,1.62,4.62,0,2.31-2.39,4.63-4.79,7.08-7,1.31-1.2,1-1.89-.12-2.95C63.4,300.93,59.25,296.72,55.08,292.55Zm-20,20c-.71-.7-1.39-1.44-2.12-2.11-1.53-1.4-2.82-4.09-4.5-4-2,.12-2.63,3.09-3.81,4.84C21,316.65,17.51,322.1,14,327.52c-1.29,2-1.29,4,.4,5.69s3.65,1.68,5.68.34q10.08-6.65,20.21-13.21c1.19-.77,1.42-1.3.27-2.35C38.64,316.26,36.88,314.37,35.06,312.55Z"/></g></g></svg>