<svg xmlns="http://www.w3.org/2000/svg" viewBox="0 0 411.26 309.28"><defs><style>.cls-1{fill:#fff;}</style></defs><title>Ресурс 29</title><g id="Слой_2" data-name="Слой 2"><g id="Слой_1-2" data-name="Слой 1"><path class="cls-1" d="M143.81,220.85a28.82,28.82,0,0,0,28.79-28.79,13.52,13.52,0,0,0-13.5-13.51H63.42a13.52,13.52,0,0,0-13.5,13.51,28.82,28.82,0,0,0,28.79,28.79h26.52v53.3H90.11a21.71,21.71,0,0,0-16,7.06l-16.4,18a6,6,0,0,0,8.91,8.12l16.4-18a9.61,9.61,0,0,1,7.09-3.13h15.12v17a6,6,0,1,0,12,0v-17h15.13a9.61,9.61,0,0,1,7.09,3.13l16.4,18a6,6,0,1,0,8.9-8.12l-16.4-18a21.67,21.67,0,0,0-16-7.06H117.28V220.84Zm-65.1-12A16.77,16.77,0,0,1,62,192.06a1.46,1.46,0,0,1,1.46-1.46h95.67a1.46,1.46,0,0,1,1.46,1.46,16.76,16.76,0,0,1-16.74,16.74Z"/><path class="cls-1" d="M332.56,220.85a28.83,28.83,0,0,0,28.79-28.79,13.52,13.52,0,0,0-13.51-13.51H252.17a13.52,13.52,0,0,0-13.51,13.51,28.83,28.83,0,0,0,28.79,28.79H294v53.3H278.86a21.68,21.68,0,0,0-16,7.06l-16.4,18a6,6,0,0,0,8.9,8.12l16.4-18a9.63,9.63,0,0,1,7.1-3.13H294v17a6,6,0,1,0,12,0v-17h15.12a9.65,9.65,0,0,1,7.1,3.13l16.4,18a6,6,0,0,0,8.51.39,6,6,0,0,0,.39-8.51l-16.4-18a21.71,21.71,0,0,0-16-7.06H306V220.84Zm-65.11-12a16.76,16.76,0,0,1-16.74-16.74,1.46,1.46,0,0,1,1.46-1.46h95.67a1.46,1.46,0,0,1,1.46,1.46,16.76,16.76,0,0,1-16.75,16.74Z"/><path class="cls-1" d="M397.37,114.7H13.89A13.9,13.9,0,0,0,0,128.59v168a12.7,12.7,0,0,0,12.68,12.69H25a12.7,12.7,0,0,0,12.69-12.69V157.09h336v139.5a12.71,12.71,0,0,0,12.69,12.69h12.28a12.7,12.7,0,0,0,12.68-12.69v-168A13.9,13.9,0,0,0,397.37,114.7ZM25.6,296.59a.64.64,0,0,1-.64.64H12.68a.64.64,0,0,1-.63-.64V157.09H25.6ZM13.89,145a1.84,1.84,0,0,1-1.84-1.84V128.59a1.84,1.84,0,0,1,1.84-1.84H397.37a1.84,1.84,0,0,1,1.84,1.84V143.2a1.84,1.84,0,0,1-1.84,1.84ZM399.21,296.59a.64.64,0,0,1-.63.64H386.3a.64.64,0,0,1-.64-.64V157.09h13.55Z"/><path class="cls-1" d="M380.66,113.9h-121A9.87,9.87,0,0,1,249.8,104V85.38a9.86,9.86,0,0,1,9.86-9.85h121a9.86,9.86,0,0,1,9.86,9.85V104A9.87,9.87,0,0,1,380.66,113.9Zm-121-28.66a.14.14,0,0,0-.14.14V104a.14.14,0,0,0,.14.14h121a.15.15,0,0,0,.15-.14V85.38a.15.15,0,0,0-.15-.14Z"/><path class="cls-1" d="M370.66,76.13h-121a9.86,9.86,0,0,1-9.86-9.85V47.62a9.87,9.87,0,0,1,9.86-9.86h121a9.87,9.87,0,0,1,9.86,9.86V66.28A9.86,9.86,0,0,1,370.66,76.13Zm-121-28.65a.14.14,0,0,0-.14.14V66.28a.14.14,0,0,0,.14.14h121a.15.15,0,0,0,.15-.14V47.62a.15.15,0,0,0-.15-.14Z"/><path class="cls-1" d="M383.66,38.37h-121a9.87,9.87,0,0,1-9.86-9.86V9.86A9.87,9.87,0,0,1,262.66,0h121a9.87,9.87,0,0,1,9.86,9.86V28.51A9.87,9.87,0,0,1,383.66,38.37Zm-121-28.65a.14.14,0,0,0-.14.14V28.51a.14.14,0,0,0,.14.14h121a.15.15,0,0,0,.15-.14V9.86a.15.15,0,0,0-.15-.14Z"/></g></g></svg>