<svg xmlns="http://www.w3.org/2000/svg" viewBox="0 0 294.95 316.01"><defs><style>.cls-1{fill:#fff;}</style></defs><title>Ресурс 28</title><g id="Слой_2" data-name="Слой 2"><g id="Слой_1-2" data-name="Слой 1"><path class="cls-1" d="M0,31.6H10.53V284.41H0V316H295v-31.6H284.41V31.6H295V0H0Zm21.07,0H31.6V284.41H21.07ZM221.21,284.41V242.28h10.53v42.13Zm-21.07,0V242.28h10.54v42.13Zm-21.06,0V242.28h10.53v42.13Zm-21.07,0V242.28h10.53v42.13Zm-21.07,0V242.28h10.54v42.13Zm105.34-42.13h10.53v42.13H242.28Zm10.53-10.54H131.68a5.27,5.27,0,0,0-5.27,5.27v47.4h-8.36l6.81-6.81a5.26,5.26,0,0,0,0-7.44h0L88,233.29a5.27,5.27,0,0,0-7.45,0h0L68.47,245.36,56.39,233.29a5.26,5.26,0,0,0-7.44,0h0l-6.81,6.81V221.21H252.81ZM42.14,52.67H52.67V94.8H42.14Zm21.06,0H73.74V94.8H63.2Zm21.07,0H94.81V94.8H84.27Zm21.07,0h10.53V94.8H105.34Zm23.25,31.6L158,54.85l8.35,8.35L136.94,92.63Zm39.95-8.35V94.8H149.66Zm31.6-23.25h10.54V94.8H200.14Zm21.07,0h10.53V94.8H221.21ZM42.14,105.34H252.81v10.53H42.14ZM189.61,94.8H179.08V52.67h10.53ZM42.14,147.47H52.67v42.14H42.14Zm21.06,0H73.74v42.14H63.2Zm94.81,0h10.53v42.14H158Zm21.07,0h10.53v42.14H179.08Zm21.06,0h10.54v42.14H200.14Zm21.07,0h10.53v42.14H221.21ZM42.14,200.14H252.81v10.54H42.14Zm105.34-10.53H136.94V147.47h10.54Zm-31.61-2.18L86.45,158l8.36-8.36,29.42,29.43Zm-12.71,2.18H84.27V170.72Zm-61,75.91L61,284.41H42.14Zm22.61-9,17.34,17.35-8.35,8.35L44.32,252.81l8.35-8.35Zm28.51,13.62L75.92,252.81l8.35-8.35,29.42,29.42-8.35,8.35Zm-3.72,11.17,3.09,3.09H86.45Zm152.74-91.71V147.47h10.53v42.14Zm10.53-52.67H131.68a5.27,5.27,0,0,0-5.27,5.27v24.15L98.53,138.48a5.25,5.25,0,0,0-7.44,0h0l-6.81,6.81v-3.08A5.27,5.27,0,0,0,79,136.94H42.14V126.4H252.81ZM242.28,94.8V52.67h10.53V94.8Zm10.53-52.67h-79a5.27,5.27,0,0,0-5.27,5.27v3.09l-6.81-6.81a5.26,5.26,0,0,0-7.45,0L126.41,71.56V47.4a5.27,5.27,0,0,0-5.27-5.27h-79V31.6H252.81Zm31.6,263.35H10.53V295H284.41Zm-10.53-21.07H263.35V31.6h10.53V284.41ZM10.53,10.53H284.41V21.07H10.53Z"/></g></g></svg>