<svg xmlns="http://www.w3.org/2000/svg" viewBox="0 0 394.9 395.15"><defs><style>.cls-1{fill:#fff;}</style></defs><title>Ресурс 20</title><g id="Слой_2" data-name="Слой 2"><g id="Слой_1-2" data-name="Слой 1"><path class="cls-1" d="M394.9,44.47c-.23-12-.07-24.11-.08-36.16a12.2,12.2,0,0,0-.23-2.84c-.91-3.69-3.7-5.47-8.4-5.47H9C2.46,0,0,2.45,0,9v377.9c0,5.48,2.77,8.22,8.28,8.23H258.1c4.88,0,7.52-2.31,8.13-7.07q0-14.77-.07-29.54c0-5.13-2.77-7.92-7.85-7.93-12.19,0-24.38,0-36.57,0-1.86,0-2.27-.5-2.26-2.31q.09-33,0-65.92c0-5.76-2.73-8.47-8.53-8.48H184.34c-6.53,0-9,2.52-9,9.08q0,32.75,0,65.48c0,1.26.12,2.15-1.73,2.15q-63.78-.09-127.55,0c-1.54,0-1.79-.53-1.77-1.88.07-4,.12-8.09,0-12.13h0V247.27h.12c0-2,0-3.93-.11-5.9-.09-2.25.55-2.76,2.77-2.76,64.11.07,128.22,0,192.33.13,6.2,0,8.9-3.85,8.8-8.72-.18-9,0-17.93,0-26.89,0-6-2.65-8.64-8.55-8.64H87.3c-5.58,0-7.62,1.63-8.87,7,.61,4.8,3.39,7.13,8.54,7.13q72,0,144.09,0c2.21,0,2.9.48,2.77,2.74-.21,3.67-.16,7.35,0,11,.07,1.8-.55,2.14-2.21,2.13q-38.67-.07-77.33,0H38.61c-5.94,0-8.64,2.66-8.64,8.56q0,61.64,0,123.26c0,5.81,2.68,8.49,8.46,8.49H181c6,0,8.57-2.59,8.57-8.58q0-32.74,0-65.49c0-1.92.4-2.52,2.39-2.42,3.73.18,7.49.14,11.23,0,1.72-.06,2.19.41,2.18,2.16q-.09,32.64,0,65.27a13,13,0,0,0,.33,3.93c1,3.28,3.55,5.1,7.33,5.11,12.19,0,24.38.06,36.57,0,2,0,2.6.52,2.52,2.53-.16,4-.12,7.94,0,11.91,0,1.49-.47,2-1.88,1.79a8.06,8.06,0,0,0-1.1,0H17c-3.33,0-2.86.47-2.86-3q0-180.48,0-361c0-2.22.44-2.9,2.81-2.9q180.45.09,360.89,0c2.27,0,2.92.52,2.88,2.85-.14,9.19-.06,18.37-.06,27.56,0,7.15.86,8.31,7.56,10.17C393.58,53.34,395,49.66,394.9,44.47Z"/><path class="cls-1" d="M388.23,65.54c-5.41.48-7.58,2.9-7.58,8.44V377.81a13.19,13.19,0,0,0,0,1.54c.15,1.23-.31,1.64-1.58,1.64q-27-.06-54,0c-1.25,0-1.63-.37-1.61-1.62.07-4.19.11-8.38,0-12.57-.05-1.69.48-2.06,2.1-2.05,10.35.08,20.7.05,31.06,0,5.38,0,8.22-2.75,8.22-8.06q0-62.07,0-124.13c0-5.32-2.86-8.12-8.19-8.12-9.18,0-18.36,0-27.54,0-1.41,0-1.86-.34-1.82-1.8q.15-6.06,0-12.13c0-1.55.42-2,2-1.94,9,.07,17.92-.16,26.87.1,6.24.18,8.8-3.91,8.79-8.73q-.12-80.81-.05-161.61c0-6-2.63-8.62-8.56-8.62H214.2c-6.42,0-8.92,2.48-8.93,8.88V76.37q0,30.85,0,61.73c0,1.6-.32,2.18-2,2.11-3.66-.14-7.34-.18-11,0-2.21.12-2.77-.47-2.76-2.73q.12-49.5.05-99c0-6.09-2.56-8.71-8.44-8.71h-143c-5.35,0-8.15,2.75-8.16,8.13q0,81.36,0,162.71c0,5.23,2.82,8,8,8q11.9,0,23.79,0c5.12,0,7.52-2.07,8.33-7.12-.89-5.07-3.25-7.06-8.39-7.06s-10.43-.06-15.64,0c-1.48,0-1.83-.44-1.8-1.85,0-2.42.06-4.84,0-7.26h0v-3.28c0-.6,0-1.2,0-1.8a5.61,5.61,0,0,1,0-.73V162.52c0-.21,0-.44,0-.71q0-13.56,0-27.12V76.62h0q0-15.26,0-30.53c0-.68-.54-1.86.61-2a21.09,21.09,0,0,1,2.25-.17H65.09a3.08,3.08,0,0,1,2,0h77.08V44q14.31,0,28.62-.06c2.16,0,2.62.55,2.62,2.65q-.12,49.61-.05,99.22c0,6,2.6,8.57,8.58,8.58q13.56,0,27.1,0a13.25,13.25,0,0,0,3.27-.31c3.57-1,5.26-3.59,5.26-8.1q0-49.71-.06-99.44c0-2.2.62-2.61,2.68-2.59,11.38.11,22.76.05,34.15.05q46,0,92.09,0c1.69,0,2.24.39,2.19,2.16-.13,4.77-.1,9.55,0,14.33a3.14,3.14,0,0,1-.09.94V175.36a2.9,2.9,0,0,1,.09.9c-.08,5.43-.09,10.87,0,16.31,0,1.53-.38,2-1.93,2-9.18-.07-18.36,0-27.54,0-5.21,0-8.12,2.75-8.15,7.93q-.09,14.12,0,28.22c0,5.28,2.82,8,8.05,8,9.11,0,18.21,0,27.32,0,1.65,0,2.26.31,2.25,2.14q-.09,53.91,0,107.82c0,1.65-.4,2.07-2.05,2.05-10.28-.08-20.56,0-30.85,0-5.65,0-8.32,2.69-8.33,8.37q0,14.55-.07,29.1c.81,4.89,3.31,7.07,8.16,7.07H386.8c5.19,0,8-2.83,8-8q0-156.71,0-313.41C394.82,69,392.83,66.53,388.23,65.54Z"/></g></g></svg>