<svg xmlns="http://www.w3.org/2000/svg" viewBox="0 0 377.06 302.21"><defs><style>.cls-1{fill:#fff;}</style></defs><title>Ресурс 33</title><g id="Слой_2" data-name="Слой 2"><g id="Слой_1-2" data-name="Слой 1"><path class="cls-1" d="M359.57,85h-4.8V48.51a6.5,6.5,0,0,0-13,0V85H337a17.51,17.51,0,0,0-17.48,17.49v25.3H245c-39.44,0-47.74,0-50,.1V26.27A13.3,13.3,0,0,1,208.31,13H328.49a13.24,13.24,0,0,1,13.09,11,6.49,6.49,0,1,0,12.8-2.2A26.19,26.19,0,0,0,328.49,0H208.31a26.14,26.14,0,0,0-19.78,9,26.14,26.14,0,0,0-19.78-9H48.56A26.31,26.31,0,0,0,22.29,26.27V85H17.48A17.51,17.51,0,0,0,0,102.52V204.43A28.5,28.5,0,0,0,28.47,232.9H44.58v52.88a16.44,16.44,0,0,0,32.83,1.16l3.84-54h30.37a6.49,6.49,0,0,0,0-13H28.47A15.5,15.5,0,0,1,13,204.43V102.52A4.5,4.5,0,0,1,17.48,98H40.09a4.51,4.51,0,0,1,4.4,3.59,4.6,4.6,0,0,1,.09.91v25.3H36.73a14.41,14.41,0,0,0-14.39,14.39v31.72a14.41,14.41,0,0,0,14.39,14.39H340.32a14.4,14.4,0,0,0,14.39-14.39V142.21a14.41,14.41,0,0,0-14.39-14.39h-7.84V102.51a4.58,4.58,0,0,1,.09-.9A4.51,4.51,0,0,1,337,98h22.6a4.5,4.5,0,0,1,4.5,4.49V204.43a15.51,15.51,0,0,1-15.48,15.49H137.26a6.49,6.49,0,1,0,0,13H295.81l3.84,54a16.44,16.44,0,0,0,32.83-1.16V232.9h16.11a28.5,28.5,0,0,0,28.47-28.47V102.52A17.51,17.51,0,0,0,359.57,85ZM195,175.33V142.21a1.4,1.4,0,0,1,1.4-1.4h143.9a1.41,1.41,0,0,1,1.41,1.4v31.72a1.4,1.4,0,0,1-1.41,1.4Zm-13-33.12v33.12H36.73a1.4,1.4,0,0,1-1.4-1.4V142.21a1.4,1.4,0,0,1,1.4-1.4h143.9A1.4,1.4,0,0,1,182,142.21Zm-49.8-14.4H57.57v-25.3A17.51,17.51,0,0,0,40.09,85H35.28V26.27A13.3,13.3,0,0,1,48.56,13H168.75A13.29,13.29,0,0,1,182,26.27V127.9c-1.72-.08-6.9-.09-25.53-.09ZM64.45,286a3.44,3.44,0,0,1-6.88-.24V232.9H68.23Zm255-53.12v52.88a3.45,3.45,0,0,1-6.89.24l-3.77-53.12Z"/></g></g></svg>