<svg xmlns="http://www.w3.org/2000/svg" viewBox="0 0 378.88 314.21"><defs><style>.cls-1{fill:#fff;}</style></defs><title>Ресурс 32</title><g id="Слой_2" data-name="Слой 2"><g id="Слой_1-2" data-name="Слой 1"><path class="cls-1" d="M74.81,118.7a59.35,59.35,0,1,1,59.35-59.35A59.42,59.42,0,0,1,74.81,118.7Zm0-106.7a47.35,47.35,0,1,0,47.35,47.35A47.4,47.4,0,0,0,74.81,12Z"/><path class="cls-1" d="M74.81,314.21A16.91,16.91,0,0,1,59.1,303.4l-58-151.27a16.84,16.84,0,0,1,15.72-22.86h116a16.84,16.84,0,0,1,15.72,22.86l-58,151.27A16.92,16.92,0,0,1,74.81,314.21Zm-58-172.94a4.84,4.84,0,0,0-4.51,6.57l58,151.27a4.84,4.84,0,0,0,9,0l58-151.27a4.85,4.85,0,0,0-4.52-6.57Z"/><path class="cls-1" d="M304.07,118.7a59.35,59.35,0,1,1,59.35-59.35A59.42,59.42,0,0,1,304.07,118.7Zm0-106.7a47.35,47.35,0,1,0,47.35,47.35A47.4,47.4,0,0,0,304.07,12Z"/><path class="cls-1" d="M362.05,314.21h-116a16.83,16.83,0,0,1-15.72-22.85l58-151.28a16.84,16.84,0,0,1,31.44,0l58,151.28a16.83,16.83,0,0,1-15.72,22.85Zm-58-172.94a4.85,4.85,0,0,0-4.51,3.11l-58,151.27a4.83,4.83,0,0,0,4.51,6.56h116a4.83,4.83,0,0,0,4.51-6.56l-58-151.27A4.85,4.85,0,0,0,304.07,141.27Z"/><path class="cls-1" d="M189.44,314.21a16.85,16.85,0,0,1-16.83-16.83V16.83a16.83,16.83,0,0,1,33.66,0V297.38A16.85,16.85,0,0,1,189.44,314.21Zm0-302.21a4.84,4.84,0,0,0-4.83,4.83V297.38a4.83,4.83,0,0,0,9.66,0V16.83A4.83,4.83,0,0,0,189.44,12Z"/></g></g></svg>