<svg xmlns="http://www.w3.org/2000/svg" viewBox="0 0 308.63 308.62"><defs><style>.cls-1{fill:#fff;}</style></defs><title>Ресурс 25</title><g id="Слой_2" data-name="Слой 2"><g id="Слой_1-2" data-name="Слой 1"><path class="cls-1" d="M154.33,308.6q-74.13,0-148.27,0c-2.46,0-4.4-.71-5.52-3A5.05,5.05,0,0,1,5,298.36a21.69,21.69,0,0,1,3.78,0c1.37.15,1.73-.41,1.54-1.63a7.08,7.08,0,0,1,0-1q0-139.74,0-279.48c0-6.76,2.89-11.63,8.85-14.71A14.93,14.93,0,0,1,24.94,0c.57,0,1.14,0,1.72,0H282.05c7.84,0,13.88,4.45,15.76,11.55a21.31,21.31,0,0,1,.53,5.46q0,139.57,0,279.13c0,1.77.39,2.48,2.21,2.21a15.77,15.77,0,0,1,2.75,0,5.14,5.14,0,1,1-.12,10.27H154.33ZM257.41,31c-.68-.06-1.37-.16-2.05-.16q-106.1,0-212.18-.05c-1.67,0-2.07.42-2.07,2.08q.06,131.75,0,263.48c0,1.71.48,2,2.08,2q106.1-.06,212.19,0c.68,0,1.37-.08,2.05-.12,2.58,0,5.16.1,7.74.1s2.37.33,2.37-2.4V33.32c0-.51,0-1,0-1.55s-.24-1-.9-1C263.56,30.89,260.48,30.5,257.41,31ZM20.94,17.91a4.15,4.15,0,0,0-.28,2.25q0,137.84,0,275.67a9,9,0,0,1,0,1c-.15,1.17.41,1.47,1.49,1.44,2.12-.07,4.25,0,6.37,0,2.74,0,2.46.27,2.46-2.52q0-132,.06-264a7.81,7.81,0,0,0-2.74-6.56C25.72,23,23.44,20.43,20.94,17.91ZM288,18.22,287.6,18c-2.79,2.8-5.53,5.65-8.39,8.38a4.7,4.7,0,0,0-1.57,3.75q.06,129.57,0,259.14c0,2.47.05,4.94,0,7.41,0,1.17.29,1.64,1.54,1.59,2.12-.09,4.25,0,6.37,0,2.43,0,2.43,0,2.43-2.37V18.22Zm-7.34-7.82H28.13c.59.63.95,1,1.34,1.45,2.23,2.24,4.59,4.36,6.63,6.75a5.56,5.56,0,0,0,4.72,2.12q113.57-.07,227.12,0h1.55a1.61,1.61,0,0,0,1.27-.41Z"/><path class="cls-1" d="M149.17,164.45V281.87c0,3.16-1.12,5-3.52,5.86a6.18,6.18,0,0,1-2.21.26H57.18c-3.7,0-5.7-2-5.76-5.77,0-1.67,0-3.33,0-5q0-114.75,0-229.5c0-2.7.47-5,3.32-6.17a7.15,7.15,0,0,1,2.71-.38q42.87,0,85.75,0c4.13,0,6,1.95,6,6.2Zm-10.41-73.2c0-.57.1-1.15.1-1.72,0-12.1,0-24.2,0-36.31,0-1.52-.38-1.88-1.89-1.88q-36.66.07-73.32,0c-1.73,0-2,.52-2,2.11q.07,45.61,0,91.21,0,16.88,0,33.73a3,3,0,0,0-.07.51q0,48.29,0,96.57c0,2.25,0,2.25,2.19,2.25h72.65c2.59,0,2.31.26,2.31-2.29q0-91.05,0-182.12C138.85,92.62,138.79,91.93,138.76,91.25Z"/><path class="cls-1" d="M257.07,45.27c.39,33.22.12,66.44.15,99.66q.09,67.9,0,135.82c0,1.08-.11,2.17-.16,3.25-1.05,2.85-2.57,4-5.5,4H165.11c-3.78,0-5.63-2.07-5.63-6.2V47.43c0-4.44,1.81-6.26,6.26-6.26q42.62,0,85.24,0C254.56,41.17,256.16,42.26,257.07,45.27ZM169.83,178.75a4.4,4.4,0,0,0-.05.51q0,48.29,0,96.57c0,1.5.36,1.92,1.9,1.92q36.5-.08,73,0c2.3,0,2.3,0,2.3-2.32q0-91,0-182.12c0-.68-.08-1.36-.12-2s.11-1.14.11-1.7c0-12.11,0-24.21,0-36.32,0-1.58-.46-1.86-1.92-1.86q-36.57.07-73.15,0c-1.7,0-2.17.35-2.17,2.13q.09,61.77,0,123.56C169.79,177.6,169.82,178.18,169.83,178.75Z"/><path class="cls-1" d="M113.23,169.19a4.76,4.76,0,0,1,1.61-3.22c3.3-3.27,6.57-6.57,9.87-9.84,2.32-2.28,5.33-2.35,7.51-.22a5.16,5.16,0,0,1-.12,7.3c-1.84,2-3.8,3.82-5.71,5.72-1.5,1.5-3,3-4.53,4.48a4.94,4.94,0,0,1-5.73.9C114.24,173.43,113.26,171.92,113.23,169.19Z"/><path class="cls-1" d="M113.05,61.87a5,5,0,0,1-1.7,3.78Q93.59,83.41,75.8,101.16c-2.28,2.27-5.29,2.27-7.37.21s-2.17-5.12.19-7.48Q86.41,76,104.27,58.24a4.91,4.91,0,0,1,5.7-1.13A4.73,4.73,0,0,1,113.05,61.87Z"/><path class="cls-1" d="M87.4,61.24a6.22,6.22,0,0,1-1.84,4.51C82.37,69,79.2,72.19,76,75.36c-2.4,2.35-5.47,2.39-7.62.18s-2-5.07.35-7.46c3.31-3.33,6.65-6.64,10-9.94a4.9,4.9,0,0,1,5.56-1A4.81,4.81,0,0,1,87.4,61.24Z"/><path class="cls-1" d="M177.43,164.29c-.37-.44-.74-.87-1.1-1.31a5.1,5.1,0,0,1-.48-6.35,5.23,5.23,0,0,1,6.09-1.91l1,.35c3.6,3.6,7.21,7.19,10.79,10.81a5,5,0,0,1,1.08,6.12,4.84,4.84,0,0,1-5.44,2.66,5.88,5.88,0,0,1-3.32-2Q181.72,168.49,177.43,164.29Z"/><path class="cls-1" d="M174.93,97.67a4.74,4.74,0,0,1,1.51-3.56q18-18,36-36a5.09,5.09,0,0,1,6.88-.17,4.93,4.93,0,0,1,1,6.53,7.92,7.92,0,0,1-1.19,1.46q-17.45,17.46-34.93,34.92c-2.61,2.6-5.86,2.69-8,.27A5,5,0,0,1,174.93,97.67Z"/><path class="cls-1" d="M174.92,72.11a5,5,0,0,1,1.6-3.86c3.36-3.36,6.7-6.74,10.11-10a5.17,5.17,0,0,1,7.27-.05,5,5,0,0,1,.17,7c-3.46,3.66-7,7.19-10.66,10.7a4.66,4.66,0,0,1-5.58.76A4.91,4.91,0,0,1,174.92,72.11Z"/></g></g></svg>