<svg xmlns="http://www.w3.org/2000/svg" viewBox="0 0 282.18 329.2"><defs><style>.cls-1{fill:#c7f2ff;}.cls-2{fill:#fff;}.cls-3{fill:#0073b1;}</style></defs><title>Ресурс 9</title><g id="Слой_2" data-name="Слой 2"><g id="Слой_1-2" data-name="Слой 1"><path class="cls-1" d="M140.34,5.14A44.16,44.16,0,0,0,96.18,49.3V67.15a14.08,14.08,0,0,1,11.25-3.67v-2.2a3,3,0,0,1,3.22-3c17.08,1.23,34.45-4.2,47.59-12.78a3,3,0,0,1,3.84.47c11.23,12.07,11.17,11.6,11.17,13.18v4.32a13.34,13.34,0,0,1,11.24,3.29V49.3A44.16,44.16,0,0,0,140.34,5.14Z"/><path class="cls-1" d="M110.07,49.3A44.16,44.16,0,0,1,147.28,5.69,44.15,44.15,0,0,0,96.18,49.3V67.15a14.08,14.08,0,0,1,11.25-3.67v-2.2a3,3,0,0,1,2.64-3v-9Z"/><path class="cls-1" d="M173.19,61.87V86.15c0,.27,0,.53,0,.79,8.59,1.3,15.32-4.91,15.32-12.53S181.75,60.59,173.19,61.87Z"/><path class="cls-2" d="M184.51,65.2a13.4,13.4,0,0,0-11.32-3.33V86.15c0,.27,0,.53,0,.79a13.37,13.37,0,0,0,11.34-3.33V65.2Z"/><path class="cls-1" d="M107.53,86.18V61.85c-7.5-1-15.35,4.75-15.35,12.56,0,7.63,6.74,13.87,15.37,12.56C107.54,86.71,107.53,86.45,107.53,86.18Z"/><path class="cls-2" d="M107.53,82.41a12.59,12.59,0,0,1-2.85-8,11.83,11.83,0,0,1,2.85-7.64V61.85c-7.5-1-15.35,4.75-15.35,12.56,0,7.63,6.74,13.87,15.37,12.56,0-.26,0-.52,0-.79Z"/><path class="cls-2" d="M140.81,117a34,34,0,0,1-18.53-5.24v18.09l18.45,22.78,18.45-22.78V111.27A32.24,32.24,0,0,1,140.81,117Z"/><path class="cls-1" d="M208,147.21,159.18,128.3l-18.45,22.78L122.28,128.3,73.52,147.21s-18.06,7.42-18.06,28v80.73a6,6,0,0,0,6,6H220a6,6,0,0,0,6-6V175.21C226,154.63,208,147.21,208,147.21Z"/><path class="cls-1" d="M69.19,255.94v-87.6a29.82,29.82,0,0,1,11.52-23.92l-7.19,2.78s-18.06,7.43-18.06,28v80.73a6,6,0,0,0,6,6H75.21A6,6,0,0,1,69.19,255.94Z"/><path class="cls-2" d="M162.08,44.42a3,3,0,0,0-3.84-.47c-13.14,8.58-30.51,14-47.59,12.78a3,3,0,0,0-3.22,3V86.11c0,17,13.28,32.44,33.38,32.44a32.48,32.48,0,0,0,32.44-32.44V57.6C173.25,56,173.31,56.49,162.08,44.42Z"/><path class="cls-1" d="M163,162.78l13.79-27.65-17.62-6.83-18.45,22.78,18,12.77A2.91,2.91,0,0,0,163,162.78Z"/><path class="cls-1" d="M118.48,162.78l-13.8-27.65,17.62-6.83,18.45,22.78-18,12.77A2.9,2.9,0,0,1,118.48,162.78Z"/><path class="cls-1" d="M159.49,239.62l-11.84-70.08H133.83L122,239.62a3,3,0,0,0,.7,2.44h0l16.35,18a2.3,2.3,0,0,0,3.4,0l16.35-18h0A3,3,0,0,0,159.49,239.62Z"/><path class="cls-1" d="M136.45,242.06a3,3,0,0,1-.71-2.44l11.84-70.08H133.83L122,239.62a3,3,0,0,0,.7,2.44l16.35,18a2.3,2.3,0,0,0,3.4,0l5.18-5.71Z"/><polygon class="cls-1" points="140.75 151.09 140.75 151.08 140.74 151.08 140.73 151.08 140.73 151.09 127.65 160.38 133.83 169.69 140.73 169.69 140.75 169.69 147.65 169.69 153.84 160.38 140.75 151.09"/><path class="cls-1" d="M147.61,156l-6.86-4.87h0l-13.08,9.29,6.18,9.31h13.73l-5.31-8a1.63,1.63,0,0,1,.42-2.23Z"/><path class="cls-1" d="M15.32,256.12v63.36a5.21,5.21,0,0,0,5.21,5.22H261.32a5.21,5.21,0,0,0,5.22-5.22V256.12Z"/><path class="cls-1" d="M28.18,319.48V256.12H15.32v63.36a5.21,5.21,0,0,0,5.21,5.22H33.4A5.21,5.21,0,0,1,28.18,319.48Z"/><path class="cls-1" d="M271.35,260.63H10.51a5.85,5.85,0,0,1-5.85-5.85v-25a5.85,5.85,0,0,1,5.85-5.84H271.35a5.84,5.84,0,0,1,5.85,5.84v25A5.86,5.86,0,0,1,271.35,260.63Z"/><path class="cls-1" d="M271.35,247.77H10.51a5.85,5.85,0,0,1-5.85-5.85v12.86a5.85,5.85,0,0,0,5.85,5.85H271.35a5.85,5.85,0,0,0,5.85-5.85V241.92A5.86,5.86,0,0,1,271.35,247.77Z"/><path class="cls-3" d="M271.51,218.79H230.76v-14a4.83,4.83,0,0,0-9.65,0v14H200.19V181a4.82,4.82,0,1,0-9.64,0V218.8h-29.2L153,169.59l2.34-3.52c2.08,1.47,4.13,2.52,7.15,1.76a7.68,7.68,0,0,0,5-4l11.76-23.58,26.87,10.41c.73.32,14.94,6.69,14.94,23.38v8.31a4.83,4.83,0,0,0,9.65,0V174c0-23.43-20.1-32-20.95-32.31l-.09,0L164.24,124v-9.68A37.13,37.13,0,0,0,177.81,91a17.54,17.54,0,0,0,9.57-4.15,17.34,17.34,0,0,0,2-24.19V48.75a48.75,48.75,0,0,0-97.5,0V63a16.37,16.37,0,0,0-4,10.68,17.3,17.3,0,0,0,6,13.14,17.6,17.6,0,0,0,9.6,4.15A37.51,37.51,0,0,0,117.88,115V124L72.46,141.65l-.09,0c-.86.36-21,8.89-21,32.32v44.79H10.64A10.69,10.69,0,0,0,0,229.46v25a10.67,10.67,0,0,0,10.65,10.66v54a10.05,10.05,0,0,0,10,10H129.84a4.82,4.82,0,1,0,0-9.64H20.69a.39.39,0,0,1-.39-.4v-54H261.88v54a.4.4,0,0,1-.4.4H152.34a4.82,4.82,0,1,0,0,9.64H261.48a10,10,0,0,0,10-10v-54a10.67,10.67,0,0,0,10.66-10.66v-25A10.69,10.69,0,0,0,271.51,218.79ZM170.27,136.72l-10.36,20.75L148,149,161,133.11Zm-29.19,19.2,6.42,4.56-2.14,3.21h-8.57l-2.14-3.21ZM127.53,125.6v-5.44a41,41,0,0,0,13.61,2.3,37.58,37.58,0,0,0,13.45-2.53v5.7l-13.51,16.69Zm10.75,47.74h5.59l7.7,45.45h-21Zm45.47-99.62a7.69,7.69,0,0,1-2.66,5.83,8,8,0,0,1-2.85,1.56V66.34A7.72,7.72,0,0,1,183.75,73.72Zm-80.64,7.39a7.79,7.79,0,0,1-2.85-1.56,7.7,7.7,0,0,1-2.67-5.83A7.12,7.12,0,0,1,100,68.55s0,0,0,0a9.56,9.56,0,0,1,3.08-1.88Zm2.51-27.72a8.28,8.28,0,0,0-2.08,3.19,19.14,19.14,0,0,0-2,.41V48.75h0a39.11,39.11,0,0,1,78.21,0v8c-.51-.11-1-.2-1.55-.27,0-1.71-.46-2.75-2.06-4.69S172,47.23,165.84,40.61a7.81,7.81,0,0,0-10-1.22c-13.16,8.6-29.31,13-44.33,11.94A7.85,7.85,0,0,0,105.62,53.39Zm7.14,32V61.06A80.39,80.39,0,0,0,140,57.4a85.4,85.4,0,0,0,19.87-9.1c1.76,1.89,3.22,3.44,4.42,4.72l.23.25,1.23,1.31C167,56,168,57.09,168.59,57.73V85.37a27.49,27.49,0,0,1-27.45,27.44C124.48,112.81,112.76,100,112.76,85.37Zm8.42,47.74,12.91,15.94-11.85,8.42-10.36-20.75ZM61.06,174c0-16.66,14-23,15-23.38l26.83-10.41,11.77,23.58h0a7.71,7.71,0,0,0,6.91,4.27,8.37,8.37,0,0,0,5.26-2l2.35,3.52-8.33,49.2H91.63V181A4.82,4.82,0,1,0,82,181v37.75H61.06Zm211.47,80.46a1,1,0,0,1-1,1H10.66a1,1,0,0,1-1-1v-25a1,1,0,0,1,1-1H271.51a1,1,0,0,1,1,1Z"/></g></g></svg>