<svg xmlns="http://www.w3.org/2000/svg" viewBox="0 0 315.73 315.73"><defs><style>.cls-1{fill:#c7f2ff;}.cls-2{fill:#0073b1;}</style></defs><title>Ресурс 16</title><g id="Слой_2" data-name="Слой 2"><g id="Слой_1-2" data-name="Слой 1"><rect class="cls-1" x="68.41" y="5.26" width="178.92" height="305.21"/><rect class="cls-1" x="89.46" y="26.31" width="136.82" height="284.16"/><rect class="cls-1" x="110.51" y="47.36" width="94.72" height="99.98"/><rect class="cls-1" x="110.51" y="189.44" width="94.72" height="99.98"/><path class="cls-2" d="M247.32,315.73H68.41a5.25,5.25,0,0,1-5.26-5.26V5.26A5.26,5.26,0,0,1,68.41,0H247.32a5.27,5.27,0,0,1,5.27,5.26V310.47A5.26,5.26,0,0,1,247.32,315.73ZM73.67,305.21H242.06V10.52H73.67Z"/><path class="cls-2" d="M226.28,315.73H89.46a5.25,5.25,0,0,1-5.26-5.26V26.31a5.26,5.26,0,0,1,5.26-5.26H226.28a5.27,5.27,0,0,1,5.26,5.26V310.47A5.26,5.26,0,0,1,226.28,315.73ZM94.72,305.21H221V31.57H94.72Z"/><path class="cls-2" d="M310.47,315.73H5.26a5.26,5.26,0,1,1,0-10.52H310.47a5.26,5.26,0,0,1,0,10.52Z"/><path class="cls-2" d="M131.56,173.65h-21a5.26,5.26,0,1,1,0-10.52h21a5.26,5.26,0,1,1,0,10.52Z"/><path class="cls-2" d="M205.23,152.6H110.51a5.26,5.26,0,0,1-5.27-5.26v-100a5.27,5.27,0,0,1,5.27-5.26h94.72a5.27,5.27,0,0,1,5.26,5.26v100A5.26,5.26,0,0,1,205.23,152.6Zm-89.46-10.52H200V52.62H115.77Z"/><path class="cls-2" d="M205.23,294.68H110.51a5.26,5.26,0,0,1-5.27-5.26v-100a5.27,5.27,0,0,1,5.27-5.26h94.72a5.27,5.27,0,0,1,5.26,5.26v100A5.26,5.26,0,0,1,205.23,294.68Zm-89.46-10.52H200V194.7H115.77Z"/></g></g></svg>