<svg xmlns="http://www.w3.org/2000/svg" viewBox="0 0 411.26 305.35"><defs><style>.cls-1{fill:#c7f2ff;}.cls-2{fill:#0073b1;}</style></defs><title>Ресурс 13</title><g id="Слой_2" data-name="Слой 2"><g id="Слой_1-2" data-name="Слой 1"><path class="cls-1" d="M31.62,126.36H6V292.67a6.67,6.67,0,0,0,6.66,6.66H25a6.66,6.66,0,0,0,6.66-6.66V126.36Z"/><path class="cls-1" d="M405.24,126.36h-25.6V292.67a6.66,6.66,0,0,0,6.66,6.66h12.28a6.66,6.66,0,0,0,6.66-6.66V126.36Z"/><path class="cls-1" d="M177.31,98.51H45.21V14.3A8.28,8.28,0,0,1,53.49,6H169a8.28,8.28,0,0,1,8.28,8.28Z"/><path class="cls-1" d="M169,6h-28.7a8.28,8.28,0,0,1,8.27,8.28V98.51h28.71V14.3A8.28,8.28,0,0,0,169,6Z"/><path class="cls-1" d="M186,91.56H36.56a4.85,4.85,0,0,0-4.84,4.85v9.48A12.51,12.51,0,0,0,44.24,118.4h134a12.52,12.52,0,0,0,12.52-12.51V96.41A4.85,4.85,0,0,0,186,91.56Z"/><path class="cls-1" d="M186,91.56H162.09v19.17a7.66,7.66,0,0,1-7.67,7.67h23.86a12.52,12.52,0,0,0,12.52-12.51V96.41A4.85,4.85,0,0,0,186,91.56Z"/><path class="cls-1" d="M366.05,98.51H234V14.3A8.28,8.28,0,0,1,242.23,6H357.78a8.28,8.28,0,0,1,8.27,8.28Z"/><path class="cls-1" d="M357.78,6H329.45a8.28,8.28,0,0,1,8.28,8.28V98.51h28.32V14.3A8.28,8.28,0,0,0,357.78,6Z"/><path class="cls-1" d="M374.7,91.56H225.31a4.85,4.85,0,0,0-4.85,4.85v9.48A12.52,12.52,0,0,0,233,118.4H367a12.51,12.51,0,0,0,12.51-12.51V96.41a4.85,4.85,0,0,0-4.84-4.85Z"/><path class="cls-1" d="M397.37,147.14H13.89A7.86,7.86,0,0,1,6,139.28V124.66a7.86,7.86,0,0,1,7.87-7.86H397.37a7.86,7.86,0,0,1,7.87,7.86v14.62A7.86,7.86,0,0,1,397.37,147.14Z"/><path class="cls-1" d="M143.81,210.89H78.71a22.76,22.76,0,0,1-22.77-22.76,7.48,7.48,0,0,1,7.48-7.48H159.1a7.48,7.48,0,0,1,7.48,7.48,22.77,22.77,0,0,1-22.77,22.76Z"/><path class="cls-1" d="M159.1,180.65H137.87v15a15.28,15.28,0,0,1-15.28,15.28h21.22a22.77,22.77,0,0,0,22.77-22.76A7.48,7.48,0,0,0,159.1,180.65Z"/><path class="cls-1" d="M332.56,210.89H267.45a22.77,22.77,0,0,1-22.77-22.76,7.48,7.48,0,0,1,7.49-7.48h95.67a7.48,7.48,0,0,1,7.48,7.48,22.76,22.76,0,0,1-22.76,22.76Z"/><path class="cls-1" d="M374.7,91.56H350.84v19.17a7.67,7.67,0,0,1-7.68,7.67H367a12.51,12.51,0,0,0,12.51-12.51V96.41a4.85,4.85,0,0,0-4.84-4.85Z"/><path class="cls-1" d="M347.84,180.65H326.62v15a15.29,15.29,0,0,1-15.29,15.28h21.23a22.76,22.76,0,0,0,22.76-22.76A7.48,7.48,0,0,0,347.84,180.65Z"/><path class="cls-2" d="M397.37,110.77H384.91a18.47,18.47,0,0,0,.66-4.88V96.41A10.89,10.89,0,0,0,374.7,85.54h-2.63V14.3A14.31,14.31,0,0,0,357.78,0H242.23a14.32,14.32,0,0,0-14.3,14.3V36.54a6,6,0,0,0,12,0V14.3a2.25,2.25,0,0,1,2.25-2.25H357.78A2.25,2.25,0,0,1,360,14.3V85.54H240V65a6,6,0,0,0-12,0V85.54h-2.62a10.88,10.88,0,0,0-10.87,10.87v9.48a18.47,18.47,0,0,0,.66,4.88H196.17a18.47,18.47,0,0,0,.65-4.88V96.41A10.88,10.88,0,0,0,186,85.54h-2.62V14.3A14.31,14.31,0,0,0,169,0H53.49a14.31,14.31,0,0,0-14.3,14.3V36.73a6,6,0,1,0,12.05,0V14.3a2.25,2.25,0,0,1,2.25-2.25H169a2.25,2.25,0,0,1,2.25,2.25V85.54h-120V64.9a6,6,0,1,0-12.05,0V85.54H36.56A10.89,10.89,0,0,0,25.69,96.41v9.48a18.47,18.47,0,0,0,.66,4.88H13.89A13.9,13.9,0,0,0,0,124.66v168a12.7,12.7,0,0,0,12.68,12.68H25a12.7,12.7,0,0,0,12.69-12.68V153.16h336V292.67a12.71,12.71,0,0,0,12.69,12.68h12.28a12.7,12.7,0,0,0,12.68-12.68v-168A13.9,13.9,0,0,0,397.37,110.77ZM226.49,97.59h147v8.3a6.46,6.46,0,0,1-2.25,4.88H228.73a6.48,6.48,0,0,1-2.24-4.88Zm-188.75,0h147v8.3a6.48,6.48,0,0,1-2.24,4.88H40a6.49,6.49,0,0,1-2.25-4.88ZM25.6,292.67a.64.64,0,0,1-.64.63H12.68a.63.63,0,0,1-.63-.63V153.16H25.6ZM13.89,141.11a1.84,1.84,0,0,1-1.84-1.84V124.66a1.84,1.84,0,0,1,1.84-1.84H397.37a1.84,1.84,0,0,1,1.84,1.84v14.61a1.84,1.84,0,0,1-1.84,1.84ZM398.58,293.3H386.3a.64.64,0,0,1-.64-.63V153.16h13.55V292.67A.63.63,0,0,1,398.58,293.3Z"/><path class="cls-2" d="M143.81,216.92a28.82,28.82,0,0,0,28.79-28.79,13.52,13.52,0,0,0-13.5-13.51H63.42a13.52,13.52,0,0,0-13.5,13.51,28.82,28.82,0,0,0,28.79,28.79h26.52v53.3H90.11a21.75,21.75,0,0,0-16,7.06l-16.4,18a6,6,0,0,0,8.91,8.12l16.4-18a9.61,9.61,0,0,1,7.09-3.13h15.12v17a6,6,0,0,0,12,0v-17h15.13a9.61,9.61,0,0,1,7.09,3.13l16.4,18a6,6,0,1,0,8.9-8.12l-16.4-18a21.71,21.71,0,0,0-16-7.06H117.28v-53.3Zm-65.1-12A16.77,16.77,0,0,1,62,188.13a1.47,1.47,0,0,1,1.46-1.46h95.67a1.46,1.46,0,0,1,1.46,1.46,16.76,16.76,0,0,1-16.74,16.74Z"/><path class="cls-2" d="M332.56,216.92a28.83,28.83,0,0,0,28.79-28.79,13.52,13.52,0,0,0-13.51-13.51H252.17a13.52,13.52,0,0,0-13.51,13.51,28.83,28.83,0,0,0,28.79,28.79H294v53.3H278.86a21.72,21.72,0,0,0-16,7.06l-16.4,18a6,6,0,0,0,8.9,8.12l16.4-18a9.63,9.63,0,0,1,7.1-3.13H294v17a6,6,0,0,0,12,0v-17h15.12a9.65,9.65,0,0,1,7.1,3.13l16.4,18a6,6,0,1,0,8.9-8.12l-16.4-18a21.75,21.75,0,0,0-16-7.06H306v-53.3Zm-65.11-12a16.76,16.76,0,0,1-16.74-16.74,1.46,1.46,0,0,1,1.46-1.46h95.67a1.47,1.47,0,0,1,1.46,1.46,16.76,16.76,0,0,1-16.75,16.74Z"/></g></g></svg>