<svg xmlns="http://www.w3.org/2000/svg" viewBox="0 0 411.26 309.28"><defs><style>.cls-1,.cls-3{fill:#c7f2ff;}.cls-2{fill:#0073b1;}.cls-3{stroke:#0073b1;stroke-miterlimit:10;stroke-width:9.72px;}</style></defs><title>Ресурс 11</title><g id="Слой_2" data-name="Слой 2"><g id="Слой_1-2" data-name="Слой 1"><path class="cls-1" d="M31.62,130.29H6v166.3a6.66,6.66,0,0,0,6.66,6.66H25a6.66,6.66,0,0,0,6.66-6.66V130.29Z"/><path class="cls-1" d="M405.24,130.29h-25.6v166.3a6.66,6.66,0,0,0,6.66,6.66h12.28a6.66,6.66,0,0,0,6.66-6.66V130.29Z"/><path class="cls-1" d="M397.37,151.07H13.89A7.87,7.87,0,0,1,6,143.2V128.59a7.87,7.87,0,0,1,7.87-7.87H397.37a7.87,7.87,0,0,1,7.87,7.87V143.2A7.87,7.87,0,0,1,397.37,151.07Z"/><path class="cls-1" d="M143.81,214.82H78.71a22.76,22.76,0,0,1-22.77-22.77,7.48,7.48,0,0,1,7.48-7.48H159.1a7.48,7.48,0,0,1,7.48,7.48,22.77,22.77,0,0,1-22.77,22.77Z"/><path class="cls-1" d="M159.1,184.57H137.87v15a15.28,15.28,0,0,1-15.28,15.28h21.22a22.77,22.77,0,0,0,22.77-22.77A7.48,7.48,0,0,0,159.1,184.57Z"/><path class="cls-1" d="M332.56,214.82H267.45a22.77,22.77,0,0,1-22.77-22.77,7.48,7.48,0,0,1,7.49-7.48h95.67a7.48,7.48,0,0,1,7.48,7.48,22.76,22.76,0,0,1-22.76,22.77Z"/><path class="cls-1" d="M347.84,184.57H326.62v15a15.29,15.29,0,0,1-15.29,15.28h21.23a22.76,22.76,0,0,0,22.76-22.77A7.48,7.48,0,0,0,347.84,184.57Z"/><path class="cls-2" d="M143.81,220.84a28.82,28.82,0,0,0,28.79-28.79,13.52,13.52,0,0,0-13.5-13.5H63.42a13.52,13.52,0,0,0-13.5,13.5,28.82,28.82,0,0,0,28.79,28.79h26.52v53.31H90.11a21.71,21.71,0,0,0-16,7.06l-16.4,18a6,6,0,0,0,8.91,8.12l16.4-18a9.61,9.61,0,0,1,7.09-3.13h15.12v17a6,6,0,1,0,12,0v-17h15.13a9.61,9.61,0,0,1,7.09,3.13l16.4,18a6,6,0,1,0,8.9-8.12l-16.4-18a21.67,21.67,0,0,0-16-7.06H117.28V220.84Zm-65.1-12A16.77,16.77,0,0,1,62,192.05a1.46,1.46,0,0,1,1.46-1.45h95.67a1.45,1.45,0,0,1,1.46,1.45,16.76,16.76,0,0,1-16.74,16.75Z"/><path class="cls-2" d="M332.56,220.84a28.82,28.82,0,0,0,28.79-28.79,13.52,13.52,0,0,0-13.51-13.5H252.17a13.52,13.52,0,0,0-13.51,13.5,28.82,28.82,0,0,0,28.79,28.79H294v53.31H278.86a21.68,21.68,0,0,0-16,7.06l-16.4,18a6,6,0,0,0,8.9,8.12l16.4-18a9.63,9.63,0,0,1,7.1-3.13H294v17a6,6,0,1,0,12,0v-17h15.12a9.65,9.65,0,0,1,7.1,3.13l16.4,18a6,6,0,0,0,8.51.39,6,6,0,0,0,.39-8.51l-16.4-18a21.71,21.71,0,0,0-16-7.06H306V220.84Zm-65.11-12a16.76,16.76,0,0,1-16.74-16.75,1.45,1.45,0,0,1,1.46-1.45h95.67a1.46,1.46,0,0,1,1.46,1.45,16.76,16.76,0,0,1-16.75,16.75Z"/><path class="cls-2" d="M397.37,114.7H13.89A13.9,13.9,0,0,0,0,128.59v168a12.7,12.7,0,0,0,12.68,12.69H25a12.7,12.7,0,0,0,12.69-12.69V157.09h336v139.5a12.71,12.71,0,0,0,12.69,12.69h12.28a12.7,12.7,0,0,0,12.68-12.69v-168A13.9,13.9,0,0,0,397.37,114.7ZM25.6,296.59a.64.64,0,0,1-.64.64H12.68a.64.64,0,0,1-.63-.64V157.09H25.6ZM13.89,145a1.84,1.84,0,0,1-1.84-1.84V128.59a1.84,1.84,0,0,1,1.84-1.84H397.37a1.84,1.84,0,0,1,1.84,1.84V143.2a1.84,1.84,0,0,1-1.84,1.84ZM399.21,296.59a.64.64,0,0,1-.63.64H386.3a.64.64,0,0,1-.64-.64V157.09h13.55Z"/><rect class="cls-3" x="254.66" y="80.38" width="131" height="28.65" rx="5"/><rect class="cls-3" x="244.66" y="42.62" width="131" height="28.65" rx="5"/><rect class="cls-3" x="257.66" y="4.86" width="131" height="28.65" rx="5"/></g></g></svg>