<svg xmlns="http://www.w3.org/2000/svg" viewBox="0 0 329.2 320"><defs><style>.cls-1{fill:#c7f2ff;}.cls-2{fill:#0073b1;}</style></defs><title>Ресурс 15</title><g id="Слой_2" data-name="Слой 2"><g id="Слой_1-2" data-name="Слой 1"><path class="cls-1" d="M323.89,102.3V314.69H5.31v-53.1H85V208.5H164.6V155.4h79.65V102.3Z"/><path class="cls-1" d="M323.89,16v1.39L21.82,218.73a10.63,10.63,0,0,1-16.51-8.84V208.5L307.39,7.11A10.62,10.62,0,0,1,323.89,16Z"/><path class="cls-1" d="M292,38.58V102.3H276.11V49.2Z"/><path class="cls-1" d="M212.39,91.68V155.4H196.46V102.3Z"/><path class="cls-1" d="M132.74,144.78V208.5H116.81V155.4Z"/><path class="cls-1" d="M53.1,197.88v63.71H37.17V208.5Z"/><path class="cls-2" d="M326.84,21.76a5.29,5.29,0,0,0,2.36-4.42V16A15.92,15.92,0,0,0,304.44,2.68L2.36,204.08A5.31,5.31,0,0,0,0,208.5v1.39a15.93,15.93,0,0,0,24.76,13.28l7.1-4.76v37.87H5.31A5.31,5.31,0,0,0,0,261.59v53.1A5.31,5.31,0,0,0,5.31,320H323.89a5.31,5.31,0,0,0,5.31-5.31V102.3A5.31,5.31,0,0,0,323.89,97H297.35V41.43ZM244.25,97a5.31,5.31,0,0,0-5.31,5.31v47.79H217.7V94.52l53.1-35.4V97Zm-79.65,53.1a5.31,5.31,0,0,0-5.31,5.31v47.79H138.05V147.62l53.1-35.4v37.87ZM85,203.19a5.3,5.3,0,0,0-5.31,5.31v47.78H58.41V200.72l53.09-35.4v37.87Zm37.16-44.95,3.54-2.36,1.77-1.18v48.49h-5.31Zm79.65-53.1,2.16-1.44,3.15-2.12v48.51h-5.31ZM18.87,214.34a5.18,5.18,0,0,1-5.45.26,5.26,5.26,0,0,1-2.65-3.34L310.33,11.53a5.2,5.2,0,0,1,5.45-.27,5.3,5.3,0,0,1,2.66,3.35Zm23.61-3,4.91-3.28.4-.26v48.48H42.48Zm276.1,98h-308V266.9H85a5.31,5.31,0,0,0,5.31-5.31V213.81H164.6a5.31,5.31,0,0,0,5.31-5.31V160.71h74.34a5.31,5.31,0,0,0,5.31-5.31V107.61h69ZM286.73,97h-5.31V52l.78-.53,4.53-3Z"/><path class="cls-2" d="M308,197.88a5.3,5.3,0,0,0-5.31,5.31v21.23a5.31,5.31,0,1,0,10.61,0V203.19A5.3,5.3,0,0,0,308,197.88Z"/><path class="cls-2" d="M308,235a5.31,5.31,0,0,0-5.31,5.31v53.1H276.11a5.31,5.31,0,0,0,0,10.62H308a5.3,5.3,0,0,0,5.3-5.31V240.35A5.3,5.3,0,0,0,308,235Z"/><path class="cls-2" d="M286.73,118.23a5.31,5.31,0,0,0,5.31,5.31h10.62v15.93a5.31,5.31,0,1,0,10.61,0V118.23a5.3,5.3,0,0,0-5.3-5.31H292A5.31,5.31,0,0,0,286.73,118.23Z"/><path class="cls-2" d="M254.87,293.45H175.22a5.31,5.31,0,1,0,0,10.62h79.65a5.31,5.31,0,0,0,0-10.62Z"/></g></g></svg>