<svg xmlns="http://www.w3.org/2000/svg" viewBox="0 0 378.88 314.21"><defs><style>.cls-1{fill:#c7f2ff;stroke:#0073b1;stroke-miterlimit:10;stroke-width:12px;}</style></defs><title>Ресурс 10</title><g id="Слой_2" data-name="Слой 2"><g id="Слой_1-2" data-name="Слой 1"><path class="cls-1" d="M74.81,112.7a53.35,53.35,0,1,1,53.35-53.35A53.41,53.41,0,0,1,74.81,112.7Z"/><path class="cls-1" d="M74.81,308.21a10.82,10.82,0,0,1-10.11-6.95L6.72,150a10.84,10.84,0,0,1,10.11-14.72h116A10.84,10.84,0,0,1,142.91,150l-58,151.27A10.83,10.83,0,0,1,74.81,308.21Z"/><path class="cls-1" d="M304.07,112.7a53.35,53.35,0,1,1,53.35-53.35A53.41,53.41,0,0,1,304.07,112.7Z"/><path class="cls-1" d="M362.05,308.21h-116A10.83,10.83,0,0,1,236,293.5l58-151.27a10.84,10.84,0,0,1,20.24,0l58,151.27a10.83,10.83,0,0,1-10.12,14.71Z"/><path class="cls-1" d="M189.44,308.21a10.83,10.83,0,0,1-10.83-10.83V16.83a10.83,10.83,0,0,1,21.66,0V297.38A10.83,10.83,0,0,1,189.44,308.21Z"/></g></g></svg>