<svg xmlns="http://www.w3.org/2000/svg" viewBox="0 0 308.63 308.62"><defs><style>.cls-1{fill:#c7f2ff;}.cls-2{fill:#0073b1;}</style></defs><title>Ресурс 7</title><g id="Слой_2" data-name="Слой 2"><g id="Слой_1-2" data-name="Слой 1"><path class="cls-1" d="M257.43,298.2c-.68,0-1.37.12-2.05.12q-106.09,0-212.19,0c-1.6,0-2.08-.3-2.08-2q.07-131.74,0-263.48c0-1.66.4-2.08,2.07-2.08q106.09.08,212.18.05c.68,0,1.37.1,2.05.16,0,4.09,0,8.19-.06,12.29,0,.66.18,1.37-.28,2-.91-3-2.51-4.1-6.09-4.1q-42.61,0-85.24,0c-4.45,0-6.26,1.82-6.26,6.26V281.79c0,4.13,1.85,6.2,5.63,6.2h86.45c2.93,0,4.45-1.14,5.5-4,.47.54.28,1.2.29,1.81C257.39,289.94,257.4,294.07,257.43,298.2ZM149.17,164.45V47.37c0-4.25-1.86-6.2-6-6.2q-42.89,0-85.75,0a7.15,7.15,0,0,0-2.71.38C51.87,42.68,51.4,45,51.4,47.72q0,114.75,0,229.5c0,1.67,0,3.33,0,5,.06,3.74,2.06,5.77,5.76,5.77h86.26a6.18,6.18,0,0,0,2.21-.26c2.4-.9,3.52-2.7,3.52-5.86Z"/><path class="cls-1" d="M20.94,17.91c2.5,2.52,4.78,5.09,7.35,7.33A7.81,7.81,0,0,1,31,31.8q-.11,132-.06,264c0,2.79.28,2.5-2.46,2.52-2.12,0-4.25-.05-6.37,0-1.08,0-1.64-.27-1.49-1.44a9,9,0,0,0,0-1q0-137.83,0-275.67A4.15,4.15,0,0,1,20.94,17.91Z"/><path class="cls-1" d="M288,18.22v277.7c0,2.37,0,2.37-2.43,2.37-2.12,0-4.25-.07-6.37,0-1.25.05-1.57-.42-1.54-1.59.07-2.47,0-4.94,0-7.41q0-129.57,0-259.14a4.7,4.7,0,0,1,1.57-3.75c2.86-2.73,5.6-5.58,8.39-8.38Z"/><path class="cls-1" d="M257.43,298.2c0-4.13,0-8.26-.08-12.39,0-.61.18-1.27-.29-1.81.05-1.08.16-2.17.16-3.25q0-67.91,0-135.82c0-33.22.24-66.44-.15-99.66.46-.61.27-1.32.28-2,0-4.1,0-8.2.06-12.29,3.07-.5,6.15-.11,9.23-.21.66,0,.91.37.9,1s0,1,0,1.55V295.9c0,2.73.27,2.4-2.37,2.4S260,298.23,257.43,298.2Z"/><path class="cls-1" d="M280.65,10.4l-9.89,9.87a1.61,1.61,0,0,1-1.27.41h-1.55q-113.56,0-227.12,0A5.56,5.56,0,0,1,36.1,18.6c-2-2.39-4.4-4.51-6.63-6.75-.39-.4-.75-.82-1.34-1.45Z"/><path class="cls-1" d="M138.76,91.25c0,.68.09,1.37.09,2q0,91.07,0,182.12c0,2.55.28,2.29-2.31,2.29H63.89c-2.19,0-2.19,0-2.19-2.25q0-48.28,0-96.57a3,3,0,0,1,.07-.51c1.27-.58,1.26-1.94,1.75-3A178.93,178.93,0,0,1,83.17,143.2a222.38,222.38,0,0,1,26.33-28.71A252.86,252.86,0,0,1,129.24,98C132.35,95.64,135.29,93.06,138.76,91.25Zm-25.53,77.94c0,2.73,1,4.24,2.9,5.12a4.94,4.94,0,0,0,5.73-.9c1.57-1.43,3-3,4.53-4.48,1.91-1.9,3.87-3.75,5.71-5.72a5.16,5.16,0,0,0,.12-7.3c-2.18-2.13-5.19-2.06-7.51.22-3.3,3.27-6.57,6.57-9.87,9.84A4.76,4.76,0,0,0,113.23,169.19Z"/><path class="cls-1" d="M138.76,91.25c-3.47,1.81-6.41,4.39-9.52,6.71a252.86,252.86,0,0,0-19.74,16.53A222.38,222.38,0,0,0,83.17,143.2a178.93,178.93,0,0,0-19.68,32.21c-.49,1-.48,2.39-1.75,3q0-16.86,0-33.73,0-45.6,0-91.21c0-1.59.29-2.11,2-2.11q36.66.11,73.32,0c1.51,0,1.9.36,1.89,1.88-.07,12.11,0,24.21,0,36.31C138.86,90.1,138.79,90.68,138.76,91.25ZM113.05,61.87A4.73,4.73,0,0,0,110,57.11a4.91,4.91,0,0,0-5.7,1.13Q86.44,76,68.62,93.89c-2.36,2.36-2.35,5.33-.19,7.48s5.09,2.06,7.37-.21q17.81-17.72,35.55-35.51A5,5,0,0,0,113.05,61.87ZM87.4,61.24a4.81,4.81,0,0,0-3.16-4.15,4.9,4.9,0,0,0-5.56,1c-3.33,3.3-6.67,6.61-10,9.94-2.36,2.39-2.47,5.28-.35,7.46s5.22,2.17,7.62-.18c3.23-3.17,6.4-6.4,9.59-9.61A6.22,6.22,0,0,0,87.4,61.24Z"/><path class="cls-1" d="M246.82,91.22c0,.69.12,1.37.12,2q0,91.06,0,182.12c0,2.32,0,2.32-2.3,2.32q-36.5,0-73,0c-1.54,0-1.9-.42-1.9-1.92q.06-48.28,0-96.57a4.4,4.4,0,0,1,.05-.51,8.15,8.15,0,0,0,1.36-2.53c1.95-4.05,3.68-8.21,6.24-11.93q4.29,4.2,8.59,8.39a5.88,5.88,0,0,0,3.32,2,4.84,4.84,0,0,0,5.44-2.66,5,5,0,0,0-1.08-6.12c-3.58-3.62-7.19-7.21-10.79-10.81a29.69,29.69,0,0,1,3-4.59,211,211,0,0,1,28.4-33,253.28,253.28,0,0,1,23.41-19.87C240.7,95.43,243.47,92.92,246.82,91.22Z"/><path class="cls-1" d="M177.43,164.29c-2.56,3.72-4.29,7.88-6.24,11.93a8.15,8.15,0,0,1-1.36,2.53c0-.57,0-1.15,0-1.72q0-61.78,0-123.56c0-1.78.47-2.14,2.17-2.13q36.57.09,73.15,0c1.46,0,1.93.28,1.92,1.86-.07,12.11,0,24.21,0,36.32,0,.56-.07,1.13-.11,1.7-3.35,1.7-6.12,4.21-9.1,6.41a253.28,253.28,0,0,0-23.41,19.87,211,211,0,0,0-28.4,33,29.69,29.69,0,0,0-3,4.59l-1-.35a5.23,5.23,0,0,0-6.09,1.91,5.1,5.1,0,0,0,.48,6.35C176.69,163.42,177.06,163.85,177.43,164.29Zm-2.5-66.62a5,5,0,0,0,1.26,3.44c2.13,2.42,5.38,2.33,8-.27q17.48-17.45,34.93-34.92a7.92,7.92,0,0,0,1.19-1.46,4.93,4.93,0,0,0-1-6.53,5.09,5.09,0,0,0-6.88.17q-18,18-36,36A4.74,4.74,0,0,0,174.93,97.67Zm0-25.56a4.91,4.91,0,0,0,2.91,4.49,4.66,4.66,0,0,0,5.58-.76c3.61-3.51,7.2-7,10.66-10.7a5,5,0,0,0-.17-7,5.17,5.17,0,0,0-7.27.05c-3.41,3.31-6.75,6.69-10.11,10A5,5,0,0,0,174.92,72.11Z"/><path class="cls-2" d="M154.33,308.6q-74.13,0-148.27,0c-2.46,0-4.4-.71-5.52-3A5.05,5.05,0,0,1,5,298.36a21.69,21.69,0,0,1,3.78,0c1.37.15,1.73-.41,1.54-1.63a7.08,7.08,0,0,1,0-1q0-139.74,0-279.48c0-6.76,2.89-11.63,8.85-14.71A14.93,14.93,0,0,1,24.94,0c.57,0,1.14,0,1.72,0H282.05c7.84,0,13.88,4.45,15.76,11.55a21.31,21.31,0,0,1,.53,5.46q0,139.57,0,279.13c0,1.77.39,2.48,2.21,2.21a15.77,15.77,0,0,1,2.75,0,5.14,5.14,0,1,1-.12,10.27H154.33ZM257.41,31c-.68-.06-1.37-.16-2.05-.16q-106.1,0-212.18-.05c-1.67,0-2.07.42-2.07,2.08q.06,131.75,0,263.48c0,1.71.48,2,2.08,2q106.1-.06,212.19,0c.68,0,1.37-.08,2.05-.12,2.58,0,5.16.1,7.74.1s2.37.33,2.37-2.4V33.32c0-.51,0-1,0-1.55s-.24-1-.9-1C263.56,30.89,260.48,30.5,257.41,31ZM20.94,17.91a4.15,4.15,0,0,0-.28,2.25q0,137.84,0,275.67a9,9,0,0,1,0,1c-.15,1.17.41,1.47,1.49,1.44,2.12-.07,4.25,0,6.37,0,2.74,0,2.46.27,2.46-2.52q0-132,.06-264a7.81,7.81,0,0,0-2.74-6.56C25.72,23,23.44,20.43,20.94,17.91ZM288,18.22,287.6,18c-2.79,2.8-5.53,5.65-8.39,8.38a4.7,4.7,0,0,0-1.57,3.75q.06,129.57,0,259.14c0,2.47.05,4.94,0,7.41,0,1.17.29,1.64,1.54,1.59,2.12-.09,4.25,0,6.37,0,2.43,0,2.43,0,2.43-2.37V18.22Zm-7.34-7.82H28.13c.59.63.95,1,1.34,1.45,2.23,2.24,4.59,4.36,6.63,6.75a5.56,5.56,0,0,0,4.72,2.12q113.57-.07,227.12,0h1.55a1.61,1.61,0,0,0,1.27-.41Z"/><path class="cls-2" d="M149.17,164.45V281.87c0,3.16-1.12,5-3.52,5.86a6.18,6.18,0,0,1-2.21.26H57.18c-3.7,0-5.7-2-5.76-5.77,0-1.67,0-3.33,0-5q0-114.75,0-229.5c0-2.7.47-5,3.32-6.17a7.15,7.15,0,0,1,2.71-.38q42.87,0,85.75,0c4.13,0,6,1.95,6,6.2Zm-10.41-73.2c0-.57.1-1.15.1-1.72,0-12.1,0-24.2,0-36.31,0-1.52-.38-1.88-1.89-1.88q-36.66.07-73.32,0c-1.73,0-2,.52-2,2.11q.07,45.61,0,91.21,0,16.88,0,33.73a3,3,0,0,0-.07.51q0,48.29,0,96.57c0,2.25,0,2.25,2.19,2.25h72.65c2.59,0,2.31.26,2.31-2.29q0-91.05,0-182.12C138.85,92.62,138.79,91.93,138.76,91.25Z"/><path class="cls-2" d="M257.07,45.27c.39,33.22.12,66.44.15,99.66q.09,67.9,0,135.82c0,1.08-.11,2.17-.16,3.25-1.05,2.85-2.57,4-5.5,4H165.11c-3.78,0-5.63-2.07-5.63-6.2V47.43c0-4.44,1.81-6.26,6.26-6.26q42.62,0,85.24,0C254.56,41.17,256.16,42.26,257.07,45.27ZM169.83,178.75a4.4,4.4,0,0,0-.05.51q0,48.29,0,96.57c0,1.5.36,1.92,1.9,1.92q36.5-.08,73,0c2.3,0,2.3,0,2.3-2.32q0-91,0-182.12c0-.68-.08-1.36-.12-2s.11-1.14.11-1.7c0-12.11,0-24.21,0-36.32,0-1.58-.46-1.86-1.92-1.86q-36.57.07-73.15,0c-1.7,0-2.17.35-2.17,2.13q.09,61.77,0,123.56C169.79,177.6,169.82,178.18,169.83,178.75Z"/><path class="cls-2" d="M113.23,169.19a4.76,4.76,0,0,1,1.61-3.22c3.3-3.27,6.57-6.57,9.87-9.84,2.32-2.28,5.33-2.35,7.51-.22a5.16,5.16,0,0,1-.12,7.3c-1.84,2-3.8,3.82-5.71,5.72-1.5,1.5-3,3-4.53,4.48a4.94,4.94,0,0,1-5.73.9C114.24,173.43,113.26,171.92,113.23,169.19Z"/><path class="cls-2" d="M113.05,61.87a5,5,0,0,1-1.7,3.78Q93.59,83.41,75.8,101.16c-2.28,2.27-5.29,2.27-7.37.21s-2.17-5.12.19-7.48Q86.41,76,104.27,58.24a4.91,4.91,0,0,1,5.7-1.13A4.73,4.73,0,0,1,113.05,61.87Z"/><path class="cls-2" d="M87.4,61.24a6.22,6.22,0,0,1-1.84,4.51C82.37,69,79.2,72.19,76,75.36c-2.4,2.35-5.47,2.39-7.62.18s-2-5.07.35-7.46c3.31-3.33,6.65-6.64,10-9.94a4.9,4.9,0,0,1,5.56-1A4.81,4.81,0,0,1,87.4,61.24Z"/><path class="cls-2" d="M177.43,164.29c-.37-.44-.74-.87-1.1-1.31a5.1,5.1,0,0,1-.48-6.35,5.23,5.23,0,0,1,6.09-1.91l1,.35c3.6,3.6,7.21,7.19,10.79,10.81a5,5,0,0,1,1.08,6.12,4.84,4.84,0,0,1-5.44,2.66,5.88,5.88,0,0,1-3.32-2Q181.72,168.49,177.43,164.29Z"/><path class="cls-2" d="M174.93,97.67a4.74,4.74,0,0,1,1.51-3.56q18-18,36-36a5.09,5.09,0,0,1,6.88-.17,4.93,4.93,0,0,1,1,6.53,7.92,7.92,0,0,1-1.19,1.46q-17.45,17.46-34.93,34.92c-2.61,2.6-5.86,2.69-8,.27A5,5,0,0,1,174.93,97.67Z"/><path class="cls-2" d="M174.92,72.11a5,5,0,0,1,1.6-3.86c3.36-3.36,6.7-6.74,10.11-10a5.17,5.17,0,0,1,7.27-.05,5,5,0,0,1,.17,7c-3.46,3.66-7,7.19-10.66,10.7a4.66,4.66,0,0,1-5.58.76A4.91,4.91,0,0,1,174.92,72.11Z"/></g></g></svg>