<svg width="48" height="48" viewBox="0 0 48 48" fill="none" xmlns="http://www.w3.org/2000/svg">
<path d="M31.0437 14.2656L13.9825 24.1053C12.5717 24.9216 12.707 27.0093 14.2163 27.6286L18.904 29.5687V33.0304C18.904 34.9336 21.3319 35.717 22.4557 34.2035L24.252 31.7794L28.8413 33.6744C29.0833 33.7728 29.3376 33.822 29.5919 33.822C29.9282 33.822 30.2604 33.7359 30.5598 33.5677C31.0847 33.2724 31.4456 32.7474 31.54 32.1527L33.9761 16.2713C34.2263 14.6265 32.4627 13.4494 31.0437 14.2656ZM20.8726 33.0304V30.3808L22.3737 31.0001L20.8726 33.0304ZM29.5919 31.8533L23.2841 29.2487L29.0341 20.9512C29.4729 20.3155 28.6445 19.5772 28.0621 20.0817L19.388 27.6409L14.9668 25.8116L32.028 15.9678L29.5919 31.8533Z" fill="#8B8B8B"/>
</svg>
