<svg xmlns="http://www.w3.org/2000/svg" viewBox="0 0 260.61 73.18"><defs><style>.cls-1{fill:#1d1d1b;}.cls-2{fill:#fff;}</style></defs><g id="Слой_2" data-name="Слой 2"><g id="Слой_1-2" data-name="Слой 1"><rect class="cls-1" y="54.34" width="260.61" height="18.83"/><polygon class="cls-2" points="105.86 70.62 107.9 70.62 105.86 67.48 105.86 70.62"/><polygon class="cls-2" points="105.86 64.43 109.88 70.62 112.36 70.62 105.86 60.63 105.86 64.43"/><polygon class="cls-2" points="105.86 56.44 105.86 57.58 114.34 70.62 116.82 70.62 107.59 56.44 105.86 56.44"/><polygon class="cls-2" points="109.58 56.44 118.81 70.62 121.28 70.62 112.05 56.44 109.58 56.44"/><polygon class="cls-2" points="114.04 56.44 123.27 70.62 125.74 70.62 116.51 56.44 114.04 56.44"/><polygon class="cls-2" points="118.5 56.44 127.73 70.62 130.2 70.62 120.97 56.44 118.5 56.44"/><polygon class="cls-2" points="122.96 56.44 132.19 70.62 134.66 70.62 125.43 56.44 122.96 56.44"/><polygon class="cls-2" points="127.42 56.44 136.65 70.62 139.12 70.62 129.89 56.44 127.42 56.44"/><polygon class="cls-2" points="131.88 56.44 141.11 70.62 143.58 70.62 134.35 56.44 131.88 56.44"/><polygon class="cls-2" points="136.34 56.44 145.57 70.62 148.04 70.62 138.81 56.44 136.34 56.44"/><polygon class="cls-2" points="140.8 56.44 150.03 70.62 152.5 70.62 143.28 56.44 140.8 56.44"/><polygon class="cls-2" points="145.26 56.44 154.49 70.62 156.96 70.62 147.74 56.44 145.26 56.44"/><polygon class="cls-2" points="149.72 56.44 158.95 70.62 161.43 70.62 152.2 56.44 149.72 56.44"/><polygon class="cls-2" points="154.18 56.44 163.41 70.62 165.89 70.62 156.66 56.44 154.18 56.44"/><polygon class="cls-2" points="158.64 56.44 167.87 70.62 170.35 70.62 161.12 56.44 158.64 56.44"/><polygon class="cls-2" points="163.1 56.44 172.33 70.62 174.81 70.62 165.58 56.44 163.1 56.44"/><polygon class="cls-2" points="167.56 56.44 176.79 70.62 179.27 70.62 170.04 56.44 167.56 56.44"/><polygon class="cls-2" points="172.03 56.44 181.25 70.62 183.73 70.62 174.5 56.44 172.03 56.44"/><polygon class="cls-2" points="176.49 56.44 185.71 70.62 188.19 70.62 178.96 56.44 176.49 56.44"/><polygon class="cls-2" points="180.95 56.44 190.18 70.62 192.65 70.62 183.42 56.44 180.95 56.44"/><polygon class="cls-2" points="185.41 56.44 194.63 70.62 197.11 70.62 187.88 56.44 185.41 56.44"/><polygon class="cls-2" points="189.87 56.44 199.1 70.62 201.57 70.62 192.34 56.44 189.87 56.44"/><polygon class="cls-2" points="194.33 56.44 203.56 70.62 206.03 70.62 196.8 56.44 194.33 56.44"/><polygon class="cls-2" points="198.79 56.44 208.02 70.62 210.49 70.62 201.26 56.44 198.79 56.44"/><polygon class="cls-2" points="203.25 56.44 212.48 70.62 214.95 70.62 205.72 56.44 203.25 56.44"/><polygon class="cls-2" points="207.71 56.44 216.94 70.62 219.41 70.62 210.19 56.44 207.71 56.44"/><polygon class="cls-2" points="212.17 56.44 221.4 70.62 223.87 70.62 214.65 56.44 212.17 56.44"/><polygon class="cls-2" points="216.63 56.44 225.86 70.62 228.33 70.62 219.11 56.44 216.63 56.44"/><polygon class="cls-2" points="221.09 56.44 230.32 70.62 232.8 70.62 223.57 56.44 221.09 56.44"/><polygon class="cls-2" points="225.55 56.44 234.78 70.62 237.26 70.62 228.03 56.44 225.55 56.44"/><polygon class="cls-2" points="230.01 56.44 239.24 70.62 241.72 70.62 232.49 56.44 230.01 56.44"/><polygon class="cls-2" points="234.47 56.44 243.7 70.62 246.18 70.62 236.95 56.44 234.47 56.44"/><polygon class="cls-2" points="238.94 56.44 248.16 70.62 250.64 70.62 241.41 56.44 238.94 56.44"/><polygon class="cls-2" points="243.4 56.44 252.62 70.62 255.1 70.62 245.87 56.44 243.4 56.44"/><polygon class="cls-2" points="247.86 56.44 257.08 70.62 258.82 70.62 258.82 69.48 250.33 56.44 247.86 56.44"/><polygon class="cls-2" points="252.32 56.44 258.82 66.42 258.82 62.62 254.79 56.44 252.32 56.44"/><polygon class="cls-2" points="258.82 59.57 258.82 56.44 256.78 56.44 258.82 59.57"/><path class="cls-1" d="M16.34,44.24,7.87,22.61,3.63,31V44.24H0V.49H3.63V24.27L15.24.49h3.87l-9,18.07L20.28,44.24Z"/><path class="cls-1" d="M45.59,42.15A8.73,8.73,0,0,1,39,44.73a8.57,8.57,0,0,1-6.51-2.58c-2.64-2.82-3.07-5.9-3.07-19.78s.43-17,3.07-19.79A8.57,8.57,0,0,1,39,0a8.73,8.73,0,0,1,6.58,2.58c2.64,2.83,3.07,5.9,3.07,19.79S48.23,39.33,45.59,42.15ZM43,4.85A5.09,5.09,0,0,0,39,3.26a4.94,4.94,0,0,0-3.87,1.59c-1.78,2.09-2.09,4.67-2.09,17.52s.31,15.42,2.09,17.51A4.94,4.94,0,0,0,39,41.48,5.1,5.1,0,0,0,43,39.88C44.73,37.79,45,35.21,45,22.37S44.73,6.94,43,4.85Z"/><path class="cls-1" d="M78.21,44.24,66,10.14v34.1H62.36V.49H66l12.17,34.1V.49h3.62V44.24Z"/><path class="cls-1" d="M104.44,3.75V44.24h-3.62V3.75H93.51V.49h18.24V3.75Z"/><path class="cls-1" d="M136.51,44.24l-2.39-12h-10.2l-2.34,12h-3.93L127.42.49h3.38l9.58,43.75ZM129,7l-4.37,22h8.79Z"/><path class="cls-1" d="M167.42,44.24l-8.48-21.63L154.7,31V44.24h-3.63V.49h3.63V24.27L166.31.49h3.87l-9,18.07,10.14,25.68Z"/><path class="cls-1" d="M190.7,3.75V44.24h-3.63V3.75h-7.31V.49H198V3.75Z"/><path class="cls-1" d="M224.37,42.15a8.73,8.73,0,0,1-6.58,2.58,8.55,8.55,0,0,1-6.51-2.58c-2.64-2.82-3.07-5.9-3.07-19.78s.43-17,3.07-19.79A8.55,8.55,0,0,1,217.79,0a8.73,8.73,0,0,1,6.58,2.58c2.64,2.83,3.07,5.9,3.07,19.79S227,39.33,224.37,42.15Zm-2.65-37.3a5.07,5.07,0,0,0-3.93-1.59,4.94,4.94,0,0,0-3.87,1.59c-1.78,2.09-2.09,4.67-2.09,17.52s.31,15.42,2.09,17.51a4.94,4.94,0,0,0,3.87,1.6,5.08,5.08,0,0,0,3.93-1.6c1.79-2.09,2.09-4.67,2.09-17.51S223.51,6.94,221.72,4.85Z"/><path class="cls-1" d="M256.74,44.24l-6.33-19.6h-5.65v19.6h-3.62V.49h8.6c5.28,0,9.46,1.91,9.46,12.11,0,6.76-1.84,10-5.41,11.36l6.82,20.28ZM249.86,3.75h-5.1V21.38h5.1c4.43,0,5.72-3.13,5.72-8.78S254.29,3.75,249.86,3.75Z"/><path class="cls-2" d="M7.21,70.63a2.68,2.68,0,0,1-2,.72,2.6,2.6,0,0,1-2.07-.88c-.69-.79-.84-2.24-.84-4.88s.15-4.09.84-4.89a2.58,2.58,0,0,1,2.07-.9,2.58,2.58,0,0,1,2,.71A3.26,3.26,0,0,1,8,63H6.79a2.15,2.15,0,0,0-.44-1.59,1.42,1.42,0,0,0-1.1-.46,1.45,1.45,0,0,0-1.15.51c-.48.61-.55,1.78-.55,4.18s.07,3.54.55,4.16a1.45,1.45,0,0,0,1.15.5,1.49,1.49,0,0,0,1.08-.44,2.17,2.17,0,0,0,.46-1.58H8A3.25,3.25,0,0,1,7.21,70.63Z"/><path class="cls-2" d="M13.59,61a2,2,0,0,0-2.18,2.18v8H10.18V60h1.21v1.19a2.45,2.45,0,0,1,.55-.71,2.73,2.73,0,0,1,1.91-.66V61Z"/><path class="cls-2" d="M16.31,65.76c0,2.29.07,3.41.58,4a1.46,1.46,0,0,0,1.12.5,1.5,1.5,0,0,0,1.14-.44,2.27,2.27,0,0,0,.49-1.58h1.21A3.06,3.06,0,0,1,20,70.58a2.68,2.68,0,0,1-2,.77,2.67,2.67,0,0,1-2-.81c-.72-.79-.9-2.29-.9-5s.16-4.16.9-5a2.6,2.6,0,0,1,2-.82,2.6,2.6,0,0,1,2,.82c.75.81.9,2.28.9,5.14Zm2.78-4.35A1.39,1.39,0,0,0,18,60.9a1.44,1.44,0,0,0-1.13.51c-.44.5-.52,1.43-.55,3.36h3.35C19.64,62.84,19.53,61.91,19.09,61.41Z"/><path class="cls-2" d="M27.05,71.18v-1a2.32,2.32,0,0,1-.62.74,2,2,0,0,1-1.34.44,2.37,2.37,0,0,1-1.78-.74,3.76,3.76,0,0,1-.73-2.54,3.32,3.32,0,0,1,1-2.53,3,3,0,0,1,2.2-.74H27v-2c0-1.23-.51-1.91-1.54-1.91a1.43,1.43,0,0,0-1,.42,2.05,2.05,0,0,0-.5,1.56H22.72a3.11,3.11,0,0,1,.81-2.31,2.68,2.68,0,0,1,1.94-.75,2.64,2.64,0,0,1,2,.71,3.14,3.14,0,0,1,.77,2.33v8.34Zm0-5.42H25.77a1.83,1.83,0,0,0-1.36.49,2.56,2.56,0,0,0-.59,1.8c0,1.35.48,2.2,1.56,2.2s1.63-.85,1.63-2Z"/><path class="cls-2" d="M32.06,70.47a2.92,2.92,0,0,1-.83-2.28V61H29.86V60h1.37V56.7h1.23V60h1.92v1H32.46v7.24c0,1.34.7,1.89,2,1.89v1.1A3.27,3.27,0,0,1,32.06,70.47Z"/><path class="cls-2" d="M36.09,57.4V55.82h1.59V57.4Zm.18,13.78V60H37.5v11.2Z"/><path class="cls-2" d="M42.89,71.18h-1.3L39,60h1.37l1.91,9.26L44.17,60h1.34Z"/><path class="cls-2" d="M47.93,65.76c0,2.29.06,3.41.57,4a1.48,1.48,0,0,0,1.12.5,1.5,1.5,0,0,0,1.14-.44,2.27,2.27,0,0,0,.49-1.58h1.21a3.06,3.06,0,0,1-.81,2.35,2.72,2.72,0,0,1-2,.77,2.63,2.63,0,0,1-2-.81c-.73-.79-.91-2.29-.91-5s.16-4.16.91-5a2.85,2.85,0,0,1,4,0c.75.81.9,2.28.9,5.14Zm2.77-4.35a1.38,1.38,0,0,0-1.1-.51,1.41,1.41,0,0,0-1.12.51c-.44.5-.53,1.43-.55,3.36h3.34C51.25,62.84,51.14,61.91,50.7,61.41Z"/><path class="cls-2" d="M63.52,70.63a2.64,2.64,0,0,1-2,.72,2.59,2.59,0,0,1-2.06-.88c-.69-.79-.84-2.24-.84-4.88s.15-4.09.84-4.89a2.95,2.95,0,0,1,4-.19,3.3,3.3,0,0,1,.8,2.44H63.11a2.19,2.19,0,0,0-.44-1.59,1.42,1.42,0,0,0-1.1-.46,1.44,1.44,0,0,0-1.15.51c-.48.61-.55,1.78-.55,4.18s.07,3.54.55,4.16a1.43,1.43,0,0,0,1.15.5,1.46,1.46,0,0,0,1.07-.44,2.13,2.13,0,0,0,.47-1.58h1.21A3.26,3.26,0,0,1,63.52,70.63Z"/><path class="cls-2" d="M75.43,71.18v-.9a2.46,2.46,0,0,1-.64.68,2.21,2.21,0,0,1-1.28.39,2.29,2.29,0,0,1-1.76-.74,3,3,0,0,1-.68-2.23V60H72.3V68.4c0,1.24.68,1.83,1.54,1.83s1.56-.59,1.56-1.83V60h1.24v11.2Z"/><path class="cls-2" d="M83.79,70.5a2.94,2.94,0,0,1-2.14.85,2.74,2.74,0,0,1-2-.79,3.29,3.29,0,0,1-.88-2.42H80a2.17,2.17,0,0,0,.57,1.65,1.55,1.55,0,0,0,1.12.46,1.73,1.73,0,0,0,1.28-.5,1.92,1.92,0,0,0,.5-1.39,2.2,2.2,0,0,0-.3-1.21,3.07,3.07,0,0,0-1.13-1l-1.4-.77a3.91,3.91,0,0,1-1.46-1.32,2.9,2.9,0,0,1-.3-1.41,3,3,0,0,1,.88-2.11,2.79,2.79,0,0,1,2-.77,2.68,2.68,0,0,1,2,.75A3.25,3.25,0,0,1,84.53,63H83.3a2.11,2.11,0,0,0-.48-1.63,1.45,1.45,0,0,0-1.1-.44,1.57,1.57,0,0,0-1.17.42,1.83,1.83,0,0,0-.48,1.32,1.88,1.88,0,0,0,.22,1,2.64,2.64,0,0,0,1,.83l1.39.8a3.8,3.8,0,0,1,1.52,1.32,3.43,3.43,0,0,1,.44,1.76A3.11,3.11,0,0,1,83.79,70.5Z"/><path class="cls-2" d="M87.94,70.47a2.92,2.92,0,0,1-.83-2.28V61H85.74V60h1.37V56.7h1.23V60h1.91v1H88.34v7.24c0,1.34.7,1.89,2,1.89v1.1A3.27,3.27,0,0,1,87.94,70.47Z"/><path class="cls-2" d="M93,65.76c0,2.29.07,3.41.58,4a1.46,1.46,0,0,0,1.12.5,1.5,1.5,0,0,0,1.14-.44,2.27,2.27,0,0,0,.49-1.58h1.21a3.06,3.06,0,0,1-.82,2.35,3,3,0,0,1-4,0c-.72-.79-.9-2.29-.9-5s.16-4.16.9-5a2.86,2.86,0,0,1,4,0c.75.81.9,2.28.9,5.14Zm2.78-4.35a1.39,1.39,0,0,0-1.1-.51,1.44,1.44,0,0,0-1.13.51c-.44.5-.52,1.43-.55,3.36h3.35C96.33,62.84,96.22,61.91,95.78,61.41Z"/><path class="cls-2" d="M103.23,61a2,2,0,0,0-2.17,2.18v8H99.82V60H101v1.19a2.64,2.64,0,0,1,.55-.71,2.77,2.77,0,0,1,1.92-.66V61Z"/><path class="cls-2" d="M67.62,68.19V55.82H66.38V68.19a2.83,2.83,0,0,0,.84,2.28,3.05,3.05,0,0,0,2.22.71v-1.1A1.65,1.65,0,0,1,67.62,68.19Z"/></g></g></svg>