<svg width="48" height="48" viewBox="0 0 48 48" fill="none" xmlns="http://www.w3.org/2000/svg">
<path d="M32.0921 26.22C31.4095 25.4988 30.7041 24.753 30.7041 21.2321C30.7041 17.6646 28.2549 14.6977 25.0603 14.1525C25.2075 13.9238 25.2861 13.6526 25.2857 13.375C25.2857 12.6156 24.7101 12 24 12C23.2899 12 22.7143 12.6156 22.7143 13.375C22.7139 13.6526 22.7925 13.9238 22.9397 14.1525C19.7451 14.6977 17.2959 17.6646 17.2959 21.2321C17.2959 24.7527 16.5908 25.4986 15.908 26.2199C13.9756 28.2611 15.3908 31.25 17.6887 31.25H21.4286C21.4286 32.7688 22.5799 34 24 34C25.4202 34 26.5714 32.7688 26.5714 31.25H30.3113C32.6091 31.25 34.0244 28.2601 32.0921 26.22ZM24 32.2812C23.4683 32.2812 23.0357 31.8186 23.0357 31.25H24.9643C24.9643 31.8186 24.5317 32.2812 24 32.2812ZM30.3117 29.1875H17.688C17.0145 29.1875 16.6781 28.3114 17.1522 27.8043C18.3007 26.576 19.2245 25.4099 19.2245 21.2321C19.2245 18.4161 21.3668 16.125 24 16.125C26.6332 16.125 28.7755 18.4161 28.7755 21.2321C28.7755 25.428 29.7085 26.5849 30.8474 27.8043C31.3237 28.3136 30.9824 29.1875 30.3117 29.1875Z" fill="black"/>
</svg>
