<svg width="40" height="40" viewBox="0 0 40 40" fill="none" xmlns="http://www.w3.org/2000/svg">
<path d="M20 10C14.4771 10 10 14.4771 10 20C10 25.5229 14.4771 30 20 30C25.5229 30 30 25.5229 30 20C30 14.4771 25.5229 10 20 10ZM20 11.9355C24.4539 11.9355 28.0645 15.5461 28.0645 20C28.0645 21.4912 27.6593 22.8875 26.9537 24.0858C26.6685 23.0598 25.9189 21.9 24.3759 21.4498C24.8874 20.6364 25.1613 19.6941 25.1613 18.7097C25.1613 15.8593 22.8553 13.5484 20 13.5484C17.1496 13.5484 14.8387 15.8544 14.8387 18.7097C14.8387 19.6941 15.1126 20.6364 15.6241 21.4498C14.0798 21.9004 13.3307 23.0592 13.046 24.0853C12.3406 22.8871 11.9355 21.491 11.9355 20C11.9355 15.5461 15.5461 11.9355 20 11.9355ZM23.2258 18.7097C23.2258 20.4913 21.7816 21.9355 20 21.9355C18.2184 21.9355 16.7742 20.4913 16.7742 18.7097C16.7742 16.9281 18.2184 15.4839 20 15.4839C21.7816 15.4839 23.2258 16.9281 23.2258 18.7097ZM14.8387 26.1963V25.0771C14.8387 24.2541 15.3843 23.5308 16.1756 23.3047L17.1626 23.0227C17.9977 23.5745 18.976 23.871 20 23.871C21.024 23.871 22.0023 23.5745 22.8375 23.0227L23.8244 23.3046C24.6157 23.5308 25.1613 24.254 25.1613 25.0771V26.1963C23.7627 27.3626 21.9634 28.0645 20 28.0645C18.0366 28.0645 16.2373 27.3626 14.8387 26.1963Z" fill="#8B8B8B"/>
</svg>
